<?xml version="1.0" encoding="utf-8"?>
<COLLADA xmlns="http://www.collada.org/2005/11/COLLADASchema" version="1.4.1" xmlns:xsi="http://www.w3.org/2001/XMLSchema-instance">
  <asset>
    <contributor>
      <author>Blender User</author>
      <authoring_tool>Blender 4.3.2 commit date:2024-12-16, commit time:21:10, hash:32f5fdce0a0a</authoring_tool>
    </contributor>
    <created>2026-07-01T15:58:50</created>
    <modified>2026-07-01T15:58:50</modified>
    <unit name="meter" meter="1"/>
    <up_axis>Z_UP</up_axis>
  </asset>
  <library_cameras>
    <camera id="Camera-camera" name="Camera">
      <optics>
        <technique_common>
          <perspective>
            <xfov sid="xfov">39.59775</xfov>
            <aspect_ratio>1.777778</aspect_ratio>
            <znear sid="znear">0.1</znear>
            <zfar sid="zfar">100</zfar>
          </perspective>
        </technique_common>
      </optics>
      <extra>
        <technique profile="blender">
          <shiftx sid="shiftx" type="float">0</shiftx>
          <shifty sid="shifty" type="float">0</shifty>
          <dof_distance sid="dof_distance" type="float">10</dof_distance>
        </technique>
      </extra>
    </camera>
  </library_cameras>
  <library_lights>
    <light id="Light-light" name="Light">
      <technique_common>
        <point>
          <color sid="color">1000 1000 1000</color>
          <constant_attenuation>1</constant_attenuation>
          <linear_attenuation>0</linear_attenuation>
          <quadratic_attenuation>0</quadratic_attenuation>
        </point>
      </technique_common>
      <extra>
        <technique profile="blender">
          <type sid="type" type="int">0</type>
          <flag sid="flag" type="int">0</flag>
          <mode sid="mode" type="int">2097153</mode>
          <red sid="red" type="float">1</red>
          <green sid="green" type="float">1</green>
          <blue sid="blue" type="float">1</blue>
          <energy sid="blender_energy" type="float">1000</energy>
          <spotsize sid="spotsize" type="float">75</spotsize>
          <spotblend sid="spotblend" type="float">0.15</spotblend>
          <clipsta sid="clipsta" type="float">0.04999995</clipsta>
          <clipend sid="clipend" type="float">40</clipend>
          <radius sid="radius" type="float">0.1</radius>
          <area_shape sid="area_shape" type="int">1</area_shape>
          <area_size sid="area_size" type="float">0.1</area_size>
          <area_sizey sid="area_sizey" type="float">0.1</area_sizey>
          <area_sizez sid="area_sizez" type="float">1</area_sizez>
        </technique>
      </extra>
    </light>
  </library_lights>
  <library_effects>
    <effect id="Black_007-effect">
      <profile_COMMON>
        <technique sid="common">
          <lambert>
            <emission>
              <color sid="emission">0 0 0 1</color>
            </emission>
            <diffuse>
              <color sid="diffuse">0.03310248 0.03310248 0.03310248 1</color>
            </diffuse>
            <index_of_refraction>
              <float sid="ior">1</float>
            </index_of_refraction>
          </lambert>
        </technique>
      </profile_COMMON>
    </effect>
    <effect id="JointGrey_007-effect">
      <profile_COMMON>
        <technique sid="common">
          <lambert>
            <emission>
              <color sid="emission">0 0 0 1</color>
            </emission>
            <diffuse>
              <color sid="diffuse">0.2784314 0.2784314 0.2784314 1</color>
            </diffuse>
            <index_of_refraction>
              <float sid="ior">1</float>
            </index_of_refraction>
          </lambert>
        </technique>
      </profile_COMMON>
    </effect>
  </library_effects>
  <library_images/>
  <library_materials>
    <material id="Black_007-material" name="Black.007">
      <instance_effect url="#Black_007-effect"/>
    </material>
    <material id="JointGrey_007-material" name="JointGrey.007">
      <instance_effect url="#JointGrey_007-effect"/>
    </material>
  </library_materials>
  <library_geometries>
    <geometry id="eSeries_UR5e_007-mesh" name="eSeries UR5e.007">
      <mesh>
        <source id="eSeries_UR5e_007-mesh-positions">
          <float_array id="eSeries_UR5e_007-mesh-positions-array" count="783">-4.767997 84.87136 -57.70089 -14.62386 84.90272 -56.0023 -9.772621 85.15061 -56.92428 -19.38484 84.90343 -54.53715 -24.00231 84.90449 -52.66809 -28.43895 84.90413 -50.41112 -32.66888 84.89993 -47.78091 -36.65502 84.90267 -44.79425 -43.78335 84.90583 -37.85449 -40.36719 84.9058 -41.47814 -46.8801 84.89659 -33.95143 -52.00348 84.89466 -25.41976 -49.60059 84.9142 -29.82242 -53.93039 84.9262 -20.97462 -55.58903 84.87596 -16.17696 -57.52592 84.9065 -6.380651 -56.7662 84.88131 -11.36847 -57.76702 84.91428 3.543041 -57.86736 84.89331 -1.404362 -57.24945 84.90072 8.528464 -54.94142 84.9038 18.20693 -56.18964 85.13429 13.39208 -53.17275 84.90644 22.85974 -48.4741 84.90123 31.63017 -51.00992 84.90512 27.34943 -42.33697 84.90566 39.4656 -45.57275 84.90212 35.68291 -38.99831 85.13518 42.58375 -34.98841 84.87762 46.12557 -26.53222 84.89578 51.44418 -30.8603 84.90357 48.9668 -16.87657 85.13153 55.22336 -22.13116 84.92584 53.46641 -12.52251 84.90763 56.50707 -2.650446 84.9016 57.82017 -7.613226 84.90551 57.37596 2.177929 84.91328 57.82847 9.824488 84.97052 57.13146 16.90885 84.86915 55.37858 26.24278 84.90514 51.58809 21.9215 85.14053 53.42438 30.58157 84.90296 49.14151 34.69358 84.90004 46.33163 38.45526 85.20381 43.05847 42.08839 84.91555 39.72514 45.37563 84.90147 35.93391 48.29495 84.90228 31.902 53.04646 84.90256 23.15642 50.71701 85.20403 27.57509 54.84064 84.90117 18.51276 56.1237 85.13188 13.67542 57.2016 84.90139 8.841536 57.74946 84.90233 3.891715 57.86991 84.90298 -1.083962 57.56552 84.89791 -6.041634 55.67407 84.9071 -15.82027 56.82949 84.91189 -10.95722 54.10774 84.90306 -20.55414 52.14374 84.89972 -25.12608 47.06535 84.90265 -33.68968 49.66079 85.2126 -29.42672 43.99591 84.90259 -37.60982 36.88926 85.08785 -44.48002 40.59798 84.90235 -41.25467 32.93555 84.89467 -47.60021 28.74887 84.91577 -50.22928 19.69127 84.9009 -54.42867 24.29317 84.90179 -52.53601 14.93239 84.90048 -55.9221 10.07661 84.89938 -56.998 0.2375161 84.91331 -57.87166 5.135338 84.90415 -57.6512 57.34996 85.43221 -7.020354 55.63188 85.4009 -15.44931 51.17216 85.49133 -26.96431 43.45121 85.37628 -37.93678 32.23608 85.43519 -48.004 24.53024 85.41356 -52.29533 4.75724 85.38658 -57.47662 0.4757872 85.43875 -57.76453 -19.81506 85.37758 -54.17516 -28.69975 85.36352 -50.03846 -40.55791 85.36896 -41.01666 -52.03318 85.4069 -24.89025 -53.31772 85.40624 22.16506 45.55763 85.40876 35.38095 -38.0299 85.47948 -43.55683 19.589 85.494 54.46614 7.782907 85.31031 57.16122 -2.123508 85.40006 57.66241 -16.69173 85.58002 55.53437 -25.75612 85.42286 51.73279 -48.03932 85.39739 31.96371 -56.25062 85.58428 14.15109 -57.63225 85.43217 4.40584 -57.38373 85.36952 -5.847126 -57.73134 85.58164 -5.698747 -6.489567 85.46188 57.49303 -34.7126 85.456 46.30888 -40.74811 85.47003 41.0355 30.81156 85.40239 48.76808 13.01528 85.58 56.52625 53.28664 85.45343 22.53364 57.56707 85.39781 3.529375 48.79526 85.57933 31.36923 56.50059 85.58008 13.05222 14.33457 85.40191 -55.89242 46.89788 85.56964 -34.11215 -14.58324 85.56768 -56.13879 -47.02083 85.39962 -33.44084 -55.90837 85.42736 -14.5779 40.33003 85.58726 -41.71777 26.96596 85.58082 51.37676 35.3179 85.57591 46.00956 42.71622 85.58186 39.27058 57.93909 85.57997 3.104281 53.99256 85.58482 -21.25956 19.27142 85.57411 -54.71542 9.623613 85.59268 -57.23715 -5.317547 85.59136 -57.79562 -24.70788 85.57865 -52.48275 -33.34434 85.58162 -47.48657 -44.36953 85.58284 -37.39286 -50.11737 85.58209 -29.24223 -54.38766 85.58216 -20.21924 -50.78605 85.58281 28.0651 -45.2402 85.58236 36.33478 3.058632 85.57924 57.92818 26.55998 97.61794 51.55226 -12.26369 97.6174 56.7146 56.89291 97.61925 -11.32871 17.22399 97.75578 55.21022 8.451665 97.62815 57.39098 45.66006 97.62115 35.80253 51.03277 97.72729 27.26238 53.39519 97.79174 22.00475 56.2172 97.78843 13.45718 57.63532 97.7228 4.756073 58.00933 97.61956 -1.362231 52.14937 97.62036 -25.43993 54.32535 97.74163 -19.77731 43.92694 97.61489 -37.88166 36.60874 97.60829 -45.03734 28.35266 97.62765 -50.60979 12.073 97.63465 -56.82271 -0.1840059 97.61956 -58.00894 -14.93696 97.61938 -56.06895 -24.30505 97.61884 -52.68851 -36.95761 97.61865 -44.73212 -43.1431 97.74053 -38.48252 -47.16535 97.61985 -33.79677 -50.15146 97.78715 -28.63055 -54.22615 97.62036 -20.64641 -57.0997 97.62727 -10.26584 -58.01279 97.62033 -1.128153 -57.35012 97.62033 8.816142 -55.31076 97.64814 17.5085 -51.00336 97.61781 27.66877 -45.51623 97.62052 35.98624 -21.8043 97.61979 53.77134 34.89691 97.75222 46.12244 -34.62729 97.62906 46.54132 -27.27053 97.72254 50.99762 -2.424695 97.61829 57.97488 43.48583 97.88072 -37.90999 38.447 97.9297 -43.02783 12.72038 97.88278 56.2703 26.65757 97.88026 51.16219 39.28659 97.79264 42.3066 45.54108 97.79275 35.40761 57.07843 97.83 8.351397 57.32005 97.82607 -6.488599 55.35934 97.8245 -16.21664 48.8045 97.79021 -30.87836 32.43626 97.80313 -47.72137 23.73102 97.82962 -52.57511 19.96449 97.76475 -54.25298 9.246031 97.80626 -56.94063 -0.5070697 97.80764 -57.67708 -9.179809 97.79196 -57.00805 -19.79026 97.80322 -54.20169 -32.99215 97.82204 -47.31763 -29.69982 97.74671 -49.57892 -40.60875 97.82772 -40.96597 -53.98227 97.79161 -20.34005 -56.65919 97.82621 -10.83073 -57.59262 97.92627 -3.49424 -57.54139 97.79087 4.071254 -56.00009 97.88244 13.85099 -52.82505 97.80073 23.21129 -47.92097 97.80122 32.10533 -38.1579 97.81503 43.24986 -41.03894 97.73857 40.72901 -30.35027 97.83015 49.05688 -16.98402 97.79421 55.12931 -7.032362 97.804 57.26797 2.822666 97.83078 57.61079 -9.961462 98.30337 -57.15186 -38.54301 98.26072 43.31307 -10.30873 98.26101 57.13895 26.65674 98.2608 51.48778 55.49972 98.29862 -17.0195 16.9654 98.2932 55.48103 7.472764 98.26594 57.50319 45.45681 98.31083 36.06356 38.79988 98.2639 43.08437 51.17953 98.26161 27.25484 54.11098 98.27895 20.74984 56.46269 98.27612 13.20914 57.89004 98.31243 4.061238 57.60767 98.26018 -6.587832 51.8338 98.25621 -25.95541 43.75181 98.25143 -38.03033 48.03438 98.50765 -32.58554 32.77841 98.2595 -47.82013 24.32245 98.30555 -52.67892 13.68886 98.28475 -56.3353 5.379614 98.28105 -57.75641 -0.9741824 98.27894 -57.9807 -19.93982 98.26458 -54.44746 -33.01015 98.33255 -47.67788 -26.56069 98.27881 -51.49921 -40.63614 98.30274 -41.42074 -47.30177 98.27127 -33.51285 -51.1599 98.27915 -27.22167 -54.20083 98.26451 -20.57486 -56.94836 98.30088 -11.08283 -57.97986 98.30377 2.674851 -56.3178 98.26722 13.76329 -53.15863 98.29619 23.24937 -48.19804 98.27053 32.21038 -43.65731 98.27775 38.10919 -21.49055 98.25204 53.84644 32.97804 98.50013 47.74861 -30.11813 98.32273 49.64321 -0.7815583 98.28734 57.96992 58.01733 99.10001 2.886228 55.64078 99.10001 16.68662 50.03057 99.10001 29.51751 41.51275 99.10001 40.63289 24.40654 99.10001 52.713 11.08218 99.10001 57.02216 -2.886228 99.10001 58.01733 -16.68662 99.10001 55.64078 -29.51751 99.10001 50.03057 -40.63289 99.10001 41.51275 -47.72732 99.1 32.94379 -52.713 99.10001 24.40654 -57.02216 99.10001 11.08218 -58.01733 99.10001 -2.886228 -55.64078 99.10001 -16.68662 -50.03057 99.10001 -29.51751 -41.51271 99.1 -40.63294 -24.40654 99.10001 -52.713 -11.08218 99.10001 -57.02216 2.886228 99.10001 -58.01733 16.68662 99.10001 -55.64078 29.51751 99.10001 -50.03057 40.63289 99.10001 -41.51275 52.713 99.10001 -24.40654 57.02216 99.10001 -11.08218</float_array>
          <technique_common>
            <accessor source="#eSeries_UR5e_007-mesh-positions-array" count="261" stride="3">
              <param name="X" type="float"/>
              <param name="Y" type="float"/>
              <param name="Z" type="float"/>
            </accessor>
          </technique_common>
        </source>
        <source id="eSeries_UR5e_007-mesh-normals">
          <float_array id="eSeries_UR5e_007-mesh-normals-array" count="1356">0.9327125 0.3599107 0.02262431 0.7883687 0.6150387 -0.01421993 0.9586326 0.2784349 -0.05914038 0.9809731 0.1273687 -0.1465238 0.8596016 0.4793334 -0.1769874 0.9422507 0.248868 -0.2241166 0.9048452 0.3024359 -0.2996463 0.7344428 0.6184029 -0.2795922 0.884282 0.2712831 -0.3800672 0.8486773 -0.1662893 -0.5020905 0.5569672 0.7320399 -0.3923075 0.7098563 0.4326159 -0.5558305 0.6858994 0.3473508 -0.6394447 0.4861269 0.7034289 -0.5185254 0.6010026 0.1996027 -0.7739217 0.5311816 0.05581372 -0.8454176 0.4366577 0.4370632 -0.7863243 0.4498797 0.2008455 -0.8702123 0.3682039 0.2505185 -0.8953583 0.2601054 0.6211769 -0.7392459 0.276669 0.3820357 -0.8817613 0.2062305 0.3009772 -0.9310649 0.1265393 0.624118 -0.7710154 0.1193799 0.4192597 -0.8999832 0.0424779 0.369252 -0.928358 0.06818038 0.169557 -0.9831592 -0.0350973 0.2149211 -0.9760007 -0.08001232 0.6552185 -0.7511903 -0.1617826 0.7406265 -0.6521494 -0.2668671 0.4200724 -0.8673644 -0.3521251 0.344795 -0.8701289 -0.3209542 0.6518254 -0.6871041 -0.4110826 0.4221034 -0.807985 -0.4924071 0.3623868 -0.791335 -0.4392072 0.6269662 -0.6434364 -0.5760585 0.2768407 -0.7691008 -0.6964105 -0.1583396 -0.6999578 -0.6029577 0.4246198 -0.6753816 -0.6793029 0.3583609 -0.6404101 -0.5807126 0.6440155 -0.4980129 -0.7250002 0.3801167 -0.5743571 -0.7933119 0.3099507 -0.5240105 -0.6702396 0.6292738 -0.3934381 -0.8033902 0.4048067 -0.4366874 -0.8623327 0.3388877 -0.3762146 -0.7250423 0.631978 -0.273711 -0.8820071 0.3624842 -0.3011123 -0.9634891 0.1264306 -0.2360172 -0.8486105 0.5101513 -0.1400209 -0.8910108 0.4325329 -0.1378949 -0.931384 0.3585534 -0.06295496 -0.6532412 0.7570834 0.01003992 -0.9565441 0.2905179 -0.02495926 -0.9909371 0.08609628 0.103108 -0.8075644 0.5707622 0.1485605 -0.7379586 0.6373481 0.2218209 -0.9124614 0.2172493 0.3467231 -0.852387 0.323646 0.4107186 -0.6673473 0.6519097 0.3600852 -0.7956317 0.3801367 0.4716633 -0.7741789 0.3058652 0.5541604 -0.6173281 0.6144892 0.4912322 -0.7213199 0.3151712 0.6167373 -0.6709993 -0.1376386 0.7285709 -0.6573548 0.07585567 0.7497538 -0.5669733 0.009308397 0.8236836 -0.4588825 0.4593237 0.7605581 -0.4809693 0.2476798 0.8410252 -0.4152921 0.1175557 0.9020606 -0.2729995 0.6083457 0.7452428 -0.1795741 0.6648686 0.7250537 -0.1724238 0.1431715 0.9745625 -0.04024976 -0.1272535 0.9910532 -0.08221262 0.3786686 0.9218738 -0.002370893 0.3040304 0.9526594 0.0442695 0.649989 0.7586532 0.08014911 0.4016615 0.9122743 0.1457365 0.8282402 0.5410907 0.1921303 0.449671 0.8722855 0.3635129 -0.2478855 0.8980041 0.3018282 0.7266628 0.6171394 0.4522036 0.3911197 0.8015843 0.5314527 0.3365288 0.7773715 0.4534972 0.6735309 0.583692 0.4968291 0.7237228 0.4789429 0.6918652 0.4040415 0.5983921 0.7647693 0.3292922 0.5538003 0.6308054 0.6651952 0.3994996 0.8806587 0.1308165 0.4553322 0.9327965 7.34223e-4 0.3604031 0.8118566 0.5319331 0.2406991 0.6707406 0.7327812 0.1146248 0.9076112 0.4075968 0.1005325 0.4517793 -0.5486447 0.7034804 0.650112 -0.5717878 0.500413 0.05990833 -0.3134405 -0.9477162 -0.7258753 -0.595888 -0.3435439 -0.7144222 -0.5099973 0.4790655 -0.04106152 -0.2480847 0.9678677 -0.7787492 -0.5650877 0.2724439 -0.6572541 0.04413962 0.7523754 -0.2680062 -0.9526693 0.1435063 -0.9245327 -0.3557698 0.1366284 -0.1674359 -0.5142656 0.841128 -0.2025504 -0.9643082 0.1705376 0.01159095 -0.9191684 0.3936945 0.130613 -0.3504624 0.9274246 0.08722567 -0.9441443 0.3177785 0.2863438 -0.864352 0.413404 0.1025179 -0.9706574 0.217519 0.3297814 -0.9012678 0.2809995 0.8911641 -0.01921141 0.4532744 0.3617203 -0.8889151 -0.2810487 0.4468439 -0.7935019 -0.413141 0.6034449 0.1615403 -0.7808707 0.6659171 -0.4739348 -0.5761426 0.100384 -0.9543085 -0.281458 0.05616056 -0.942153 -0.3304449 -0.1550391 -0.8544844 -0.4958017 -0.02518403 -0.9876037 -0.1549347 -0.1530441 -0.9308155 -0.3319038 -0.3201536 -0.3365659 -0.8855648 -0.1702235 -0.9586895 -0.2279 -0.6531959 -0.3606622 -0.6657761 -0.2601961 -0.9405887 -0.2181532 -0.2677181 -0.9507663 -0.1561109 -0.5486164 -0.8302854 -0.09821552 -0.3415313 -0.4364642 0.8323794 0.4255626 0.3547662 0.8324888 0.4072613 -0.865414 0.2918853 0.6623477 -0.1811003 0.7269788 0.8932439 -0.3363493 0.2983025 0.8273277 -0.5521537 0.1032234 0.5046112 -0.860257 0.07297778 0.2198092 -0.9711232 -0.0927565 0.8526642 -0.1084773 -0.511074 -0.08287334 0.5758682 -0.8133314 0.2155432 -0.516999 -0.828404 -0.4407694 -0.4749017 -0.7617024 -0.6987897 -0.5184703 -0.4928301 -0.2656799 -0.9590739 -0.09793657 -0.5232135 -0.8521689 -0.007474124 0.4288426 -0.9033026 -0.0117706 0.9980146 0.01670461 0.0607267 0.9896923 0.005291163 0.1431122 0.986846 0.01757687 0.1607051 0.9469621 0.0113281 0.3211457 0.9495735 0.005086004 0.3135032 0.9120643 0.009548425 0.4099364 0.8913215 -0.010944 0.4532399 0.8460469 0.02421039 0.5325586 0.7924389 -0.01814085 0.6096816 0.7143375 0.02676743 0.6992893 0.6733852 0.005323886 0.7392727 0.655891 0.01568001 0.7546929 0.5405946 0.01089185 0.8412128 0.5456716 0.006186485 0.8379763 0.3862855 -4.19701e-4 0.9223793 0.3649522 0.01389998 0.9309226 0.299041 -2.27321e-4 0.9542403 0.2409013 0.02160698 0.9703091 0.1394065 -0.01825523 0.9900671 0.05357789 0.02053004 0.9983526 -0.04521167 -0.02446681 0.9986778 -0.1270514 0.003167688 0.9918911 -0.188774 -0.02680659 0.9816547 -0.2947545 0.01474767 0.9554593 -0.3861706 -0.028975 0.9219722 -0.4525405 -0.002418577 0.8917406 -0.5179972 -0.01265674 0.8552888 -0.5179421 -0.01270186 0.8553214 -0.6716889 -0.009437203 0.7407733 -0.6579538 0.003215193 0.7530515 -0.7229672 1.21347e-4 0.6908825 -0.7272011 0.003199398 0.6864171 -0.8305263 -0.002917647 0.5569719 -0.834717 0.00306183 0.5506708 -0.9189259 -0.003603816 0.394414 -0.9206808 -0.001423835 0.3903141 -0.9390121 -0.02234596 0.3431575 -0.9734996 0.01229012 0.2283583 -0.9896495 -0.02801918 0.1407438 -0.9977866 -9.62722e-4 0.06649076 -0.9995929 -0.02693933 0.009404301 -0.9949413 0.01448106 -0.09940886 -0.9793531 -0.02471816 -0.20064 -0.9655165 -0.002269268 -0.2603323 -0.9637492 0.003463447 -0.2667872 -0.9038794 -0.003052473 -0.4277766 -0.8906986 0.02027285 -0.4541422 -0.8652384 0.02268409 -0.5008473 -0.8171018 -0.0176391 -0.5762236 -0.7588901 0.01821011 -0.6509643 -0.697041 0.00605148 -0.7170058 -0.7107845 -0.005314946 -0.7033898 -0.6422839 -0.01745343 -0.7662681 -0.555489 0.02345627 -0.831193 -0.5007445 0.001138567 -0.8655944 -0.4993543 0.001900255 -0.8663959 -0.3396379 -0.004710257 -0.9405446 -0.33942 -0.004510521 -0.9406241 -0.1760234 5.3861e-4 -0.9843859 -0.1613475 0.01262396 -0.986817 -0.1099769 0.02931779 -0.9935017 0.004845976 -0.01979863 -0.9997923 0.05782943 -0.01689642 -0.9981835 0.09630084 0.01466459 -0.9952443 0.2528094 -0.01813 -0.9673463 0.3093029 0.01848262 -0.950784 0.4182972 0.01067227 -0.9082476 0.3983989 0.001895189 -0.9172104 0.4863603 -0.03170776 -0.8731829 0.5594451 0.001042604 -0.8288668 0.6134766 -0.02802813 -0.7892155 0.6989882 0.01897001 -0.7148815 0.7567133 -0.01786845 -0.6535027 0.8200945 0.02334833 -0.5717517 0.8582642 0.001899421 -0.5132046 0.8517463 -0.002773523 -0.5239472 0.8964133 -0.01655668 -0.4429101 0.9331675 0.01822417 -0.3589798 0.9624605 0.006735801 -0.2713384 0.9567893 -6.82315e-4 -0.2907814 0.9793171 -0.03379583 -0.199489 0.9937823 -0.002083361 -0.1113213 0.9979646 -0.02721685 -0.05767214 0.04840105 0.9182544 0.3930221 0.227125 0.2875297 0.930452 0.2396452 0.7768136 0.5823494 0.3664382 0.7270399 0.5806342 0.3508265 0.9337556 -0.07086092 0.4974638 0.7864201 -0.36616 0.4788324 0.7450743 -0.46431 0.03534746 0.8838161 -0.4664973 -0.4876391 0.8699112 -0.07391101 -0.6149665 -0.7884905 -0.00994879 -0.9117733 -0.3833702 0.1472985 -0.3419274 0.9314939 0.1241158 0.04951202 0.3682079 0.9284242 -0.01441282 0.9399929 0.3408895 -0.107941 0.5281953 0.8422343 -0.06589269 0.9509381 0.3022831 -0.2411059 0.5747609 0.7819962 -0.1013067 0.9665935 0.2354446 -0.4784706 0.4005579 0.7814213 -0.2044118 0.9402227 0.2723916 -0.5867217 0.4745382 0.6561792 -0.2117495 0.9613521 0.175967 -0.679353 0.5808987 0.4483706 -0.6793017 0.5810341 0.4482729 -0.6795479 0.5806789 0.44836 -0.2735418 0.9499678 0.1507851 -0.8633576 0.3462609 0.3670384 -0.197296 0.9793938 0.04315149 -0.8055697 0.5900647 0.05367684 -0.1733794 0.9847157 -0.01657694 -0.5671029 0.8084429 -0.1575262 -0.4541537 0.8812319 -0.1310523 -0.3987163 0.8982789 -0.1847172 -0.2008104 0.9684721 -0.1474348 -0.6567366 0.3698595 -0.6571918 -0.2228671 0.9372588 -0.2680976 -0.5219706 0.3625476 -0.772079 -0.1250805 0.9584391 -0.2564167 -0.2920495 0.5096903 -0.8092731 -0.07619792 0.9534029 -0.2919191 -0.04204899 0.8513295 -0.5229437 -0.04191642 0.8513531 -0.5229159 -0.04196417 0.8513481 -0.5229202 0.07132709 0.6627721 -0.7454164 0.06935262 0.9626447 -0.2617357 0.3851469 0.2906943 -0.875876 0.1644098 0.9428864 -0.2897148 0.4823208 0.5091851 -0.7128094 0.3100127 0.8529295 -0.420004 0.6314599 0.428605 -0.6461859 0.2211787 0.9694817 -0.1057607 0.9063848 0.3242739 -0.270764 0.8696312 0.4839931 -0.09742927 0.2805025 0.9598529 9.50804e-4 0.9287073 -0.3373616 0.1539156 0.3987356 0.8789024 0.2618021 0.3235985 0.8995654 0.2933706 -0.2155451 -0.5553227 -0.8032167 -0.2199565 -0.5132089 -0.8295999 -0.3468908 -0.5260788 -0.7764715 -0.3263704 -0.6270908 -0.7072761 -0.5081219 -0.09256309 -0.8562968 -0.4939571 -0.5128808 -0.7021108 -0.5502402 -0.4943119 -0.6729723 -0.5072477 -0.6110486 -0.6077166 -0.553361 -0.5924272 -0.5855097 -0.764019 0.04206907 -0.6438208 -0.576549 -0.7086042 -0.4067818 -0.8269232 -0.2436239 -0.5067994 -0.7557247 -0.55542 -0.346971 -0.7689488 -0.5316658 -0.3550342 -0.8309708 -0.502547 -0.2386089 -0.7782362 -0.5893111 -0.2169349 -0.8260838 -0.5550432 -0.09753215 -0.7509517 -0.660323 -0.006732285 -0.9033991 -0.4073032 0.134068 -0.7789028 -0.6138393 0.1284988 -0.7729395 -0.5791219 0.2591957 -0.7907206 -0.5526191 0.2633882 -0.7420252 -0.5310142 0.409173 -0.7425289 -0.5300398 0.4095227 -0.6779084 -0.5171741 0.5224664 -0.6138021 -0.6226665 0.4853179 -0.71209 -0.05857813 0.6996403 -0.5391069 -0.5555807 0.6330038 -0.5057033 -0.5331445 0.6782487 -0.4939444 -0.5594785 0.6655846 -0.3367418 -0.6510351 0.6802634 -0.3725296 0.6823472 0.6289865 -0.2589566 -0.7080251 0.6569947 -0.2812105 -0.09127789 0.9552952 -0.1323398 -0.7739022 0.6193236 -0.08151805 -0.3177132 0.9446763 -0.0221607 -0.720296 0.6933128 0.05248922 -0.3276374 0.9433444 0.08752423 -0.7829919 0.6158435 0.2012503 -0.2718002 0.9410755 0.2040807 -0.3604607 0.9101753 0.365786 -0.2724547 0.8899264 0.3174614 -0.6160827 0.7208747 0.4285829 -0.5868486 0.6869683 0.4537793 -0.4750395 0.7539377 0.6193638 -0.1031897 0.7782933 0.5747873 -0.4890961 0.6560523 0.6789514 -0.3572859 0.6413828 0.5984317 -0.5895556 0.5424978 0.7315437 -0.4861735 0.477995 0.809058 -0.2144986 0.5471889 0.887017 -0.2380447 0.3956459 0.8774651 -0.2725142 0.3947041 0.8188718 -0.5062102 0.2705559 0.9116777 -0.3822857 0.1506697 0.9460442 -0.2890496 0.1464608 0.9603171 -0.2314421 0.1556458 0.9080731 -0.4182323 -0.02202534 0.830284 -0.5566171 -0.02839118 0.8045089 -0.5706563 -0.1646724 0.8314222 -0.5297972 -0.1674879 0.7787657 -0.5902593 -0.2124099 0.9228289 -0.07292777 -0.3782441 0.6116928 -0.7289253 -0.3074082 0.8321433 -0.265419 -0.4869193 0.6930572 -0.4974774 -0.5217164 0.6291475 -0.6084364 -0.4837135 0.5706127 -0.5936258 -0.5674589 0.5261283 -0.5371286 -0.6593042 0.4327344 -0.488417 -0.7577532 0.3800131 -0.6216253 -0.6849614 0.3390974 -0.5825067 -0.7387144 0.1697239 -0.705822 -0.6877566 0.05050933 -0.7403729 -0.6702961 0.03030687 -0.5198958 -0.8536919 -0.06145203 -0.5828775 -0.810233 -0.0856533 -0.3888584 -0.9173073 0.1607127 -0.3044444 -0.9388744 -0.9779154 0.1957028 -0.07336115 0.9067896 -0.3125692 0.2829015 0.3220397 0.1330679 -0.9373279 0.9811756 0.09351396 0.1689665 0.9382659 0.3128256 0.1476395 0.9131498 -0.2915304 0.2848993 0.8833527 0.2655315 0.3862397 0.902809 0.1382425 0.4072164 0.7965663 -0.3096716 0.5192162 0.7251518 0.4066374 0.5556986 0.6871927 -0.3256502 0.6493984 0.6150884 0.222278 0.756478 0.5039024 0.09822481 0.8581576 0.3607164 -0.3146373 0.8780018 0.2830582 0.3921954 0.875249 0.1980428 -0.3233746 0.925315 0.06864619 0.2586303 0.9635342 0.0564621 0.08821541 0.9944999 -0.08290368 -0.2706543 0.9591003 -0.1536108 0.4251021 0.8920157 -0.2590345 -0.3963213 0.8808125 -0.3803531 0.3140583 0.8698846 -0.4361217 -0.1082035 0.8933588 -0.6065698 0.07424813 0.7915556 -0.5882636 0.2101857 0.7808764 -0.6882137 -0.2647161 0.6754905 -0.7562389 0.189958 0.626114 -0.7891984 -0.08936887 0.6076013 -0.8626876 0.04412239 0.5038089 -0.856225 -0.2068218 0.4733957 -0.9481006 0.08421027 0.3066171 -0.9281916 0.2080946 0.3084757 -0.9297285 -0.3413155 0.1382345 -0.9098206 0.4099087 0.06481897 -0.8669976 -0.494068 -0.06490045 -0.907809 0.3891555 -0.1563359 -0.9017447 -0.3455709 -0.259687 -0.8810853 0.2743503 -0.3852542 -0.9059227 0.08771765 -0.4142581 -0.8192379 -0.2770898 -0.5020663 -0.7562387 0.3037484 -0.579517 -0.7489466 -0.1988616 -0.6320864 -0.6330825 0.06606286 -0.7712602 -0.5083072 0.06400901 -0.8587937 -0.3920486 -0.2709825 -0.8791283 -0.2922016 0.3135271 -0.9035037 -0.2552701 -0.2052929 -0.9448239 -0.07092624 0.06230282 -0.995534 -0.08480989 0.357264 -0.930145 0.03458899 -0.2062456 -0.9778887 0.1663254 0.1986832 -0.9658473 0.1645397 0.2150304 -0.9626467 0.3032985 -0.3655942 -0.8799721 0.3674127 0.3985957 -0.8403151 0.4681081 -0.3347126 -0.8178279 0.5868654 0.2627937 -0.7658515 0.6268013 -0.193646 -0.7547327 0.6531139 -0.3516801 -0.6706441 0.7479591 0.2806141 -0.6015089 0.8677384 0.008049786 -0.4969559 0.8936707 -0.2604741 -0.3653848 0.8603835 0.4269872 -0.2782484 0.914762 -0.3585423 -0.1861665 0.951352 0.3005591 -0.06777697 0.9803261 -0.1957907 -0.02503329 0 1 0 0 1 5.16554e-7 0 1 0 0 1 -1.2455e-6 0.04957824 0.9981564 -0.03501266 -0.03790026 0.9985311 0.03872162 0 1 3.19591e-7 0 1 3.8459e-7 0 1 -1.72364e-7 0 1 -2.22756e-7 -9.75852e-7 1 -1.59157e-7 0 1 0 2.36685e-7 1 0 1.3369e-6 1 1.45361e-7 3.97492e-7 1 4.55304e-7 2.08583e-6 1 0 7.6261e-7 1 -2.2104e-7 -0.3865721 0.7422285 -0.5474111 0 1 2.45803e-6 3.76822e-7 1 0 0 1 -1.41356e-6 0 1 0 0 1 0 0.01378905 0.9966933 -0.08007681 7.02819e-4 0.9978438 0.06563192 0 1 2.05926e-7</float_array>
          <technique_common>
            <accessor source="#eSeries_UR5e_007-mesh-normals-array" count="452" stride="3">
              <param name="X" type="float"/>
              <param name="Y" type="float"/>
              <param name="Z" type="float"/>
            </accessor>
          </technique_common>
        </source>
        <vertices id="eSeries_UR5e_007-mesh-vertices">
          <input semantic="POSITION" source="#eSeries_UR5e_007-mesh-positions"/>
        </vertices>
        <triangles material="Black_007-material" count="448">
          <input semantic="VERTEX" source="#eSeries_UR5e_007-mesh-vertices" offset="0"/>
          <input semantic="NORMAL" source="#eSeries_UR5e_007-mesh-normals" offset="1"/>
          <p>103 0 52 0 53 0 103 1 53 1 72 1 72 2 53 2 54 2 72 3 54 3 56 3 72 4 56 4 73 4 73 5 56 5 55 5 73 6 55 6 57 6 73 7 57 7 74 7 74 8 57 8 58 8 74 9 58 9 60 9 60 10 59 10 75 10 75 11 59 11 61 11 75 12 61 12 63 12 75 13 63 13 62 13 76 14 62 14 64 14 76 15 64 15 65 15 76 16 65 16 77 16 77 17 65 17 67 17 77 18 67 18 66 18 77 19 66 19 106 19 106 20 66 20 68 20 106 21 68 21 69 21 106 22 69 22 78 22 78 23 69 23 71 23 78 24 71 24 70 24 78 25 70 25 79 25 79 26 70 26 0 26 79 27 0 27 2 27 2 28 1 28 80 28 80 29 1 29 3 29 80 30 3 30 4 30 80 31 4 31 81 31 81 32 4 32 5 32 81 33 5 33 6 33 81 34 6 34 86 34 86 35 6 35 7 35 86 36 7 36 82 36 82 37 7 37 9 37 82 38 9 38 8 38 82 39 8 39 109 39 109 40 8 40 10 40 109 41 10 41 12 41 109 42 12 42 83 42 83 43 12 43 11 43 83 44 11 44 13 44 83 45 13 45 110 45 110 46 13 46 14 46 110 47 14 47 16 47 110 48 16 48 95 48 95 49 16 49 15 49 95 50 15 50 18 50 95 51 18 51 17 51 95 52 17 52 94 52 94 53 17 53 19 53 94 54 19 54 21 54 21 55 20 55 84 55 84 56 20 56 22 56 84 57 22 57 24 57 84 58 24 58 92 58 92 59 24 59 23 59 92 60 23 60 26 60 92 61 26 61 99 61 99 62 26 62 25 62 99 63 25 63 27 63 27 64 28 64 98 64 98 65 28 65 30 65 98 66 30 66 91 66 91 67 30 67 29 67 91 68 29 68 32 68 91 69 32 69 31 69 31 70 33 70 97 70 97 71 33 71 35 71 97 72 35 72 89 72 89 73 35 73 34 73 89 74 34 74 36 74 89 75 36 75 88 75 88 76 36 76 37 76 88 77 37 77 38 77 88 78 38 78 87 78 87 79 38 79 40 79 40 80 39 80 100 80 100 81 39 81 41 81 100 82 41 82 42 82 100 83 42 83 43 83 43 84 44 84 85 84 85 85 44 85 45 85 85 86 45 86 46 86 85 87 46 87 48 87 48 88 47 88 102 88 102 89 47 89 49 89 102 90 49 90 50 90 50 91 51 91 103 91 103 92 51 92 52 92 113 93 112 93 100 93 104 94 114 94 85 94 79 95 118 95 78 95 124 96 123 96 83 96 126 97 125 97 92 97 127 98 97 98 89 98 21 99 84 99 93 99 27 100 98 100 99 100 84 101 92 101 125 101 21 102 93 102 94 102 31 103 97 103 90 103 126 104 92 104 99 104 127 105 89 105 88 105 127 106 88 106 101 106 101 107 88 107 87 107 113 108 100 108 43 108 112 109 87 109 100 109 114 110 43 110 85 110 102 111 104 111 48 111 107 112 60 112 75 112 111 113 75 113 62 113 111 114 62 114 76 114 111 115 107 115 75 115 117 116 77 116 106 116 118 117 106 117 78 117 108 118 2 118 80 118 119 119 79 119 108 119 120 120 80 120 81 120 120 121 108 121 80 121 121 122 81 122 86 122 122 123 86 123 82 123 122 124 82 124 109 124 123 125 109 125 83 125 96 126 110 126 95 126 90 127 91 127 31 127 87 128 40 128 100 128 104 129 85 129 48 129 113 130 43 130 114 130 105 131 102 131 50 131 50 132 103 132 105 132 105 133 103 133 115 133 73 134 74 134 116 134 107 135 74 135 60 135 2 136 108 136 79 136 106 137 118 137 117 137 120 138 81 138 121 138 109 139 123 139 122 139 124 140 83 140 110 140 95 141 94 141 96 141 115 142 103 142 72 142 115 143 138 143 137 143 115 144 137 144 105 144 105 145 137 145 136 145 105 146 136 146 102 146 102 147 136 147 135 147 102 148 135 148 134 148 102 149 134 149 104 149 104 150 134 150 133 150 104 151 133 151 114 151 114 152 133 152 168 152 114 153 168 153 113 153 113 154 168 154 160 154 113 155 160 155 112 155 112 156 160 156 128 156 112 157 128 157 87 157 87 158 128 158 131 158 87 159 131 159 101 159 101 160 131 160 132 160 101 161 132 161 127 161 127 162 132 162 163 162 127 163 163 163 97 163 97 164 163 164 129 164 97 165 129 165 90 165 90 166 129 166 159 166 90 167 159 167 91 167 91 168 159 168 162 168 91 169 162 169 98 169 98 170 162 170 161 170 98 171 161 171 192 171 98 172 192 172 99 172 99 173 192 173 126 173 126 174 192 174 158 174 126 175 158 175 125 175 125 176 158 176 157 176 125 177 157 177 84 177 84 178 157 178 156 178 84 179 156 179 93 179 93 180 156 180 155 180 93 181 155 181 94 181 94 182 155 182 154 182 94 183 154 183 96 183 96 184 154 184 153 184 96 185 153 185 110 185 110 186 153 186 124 186 124 187 153 187 152 187 124 188 152 188 123 188 123 189 152 189 151 189 123 190 151 190 150 190 123 191 150 191 122 191 122 192 150 192 149 192 122 193 149 193 86 193 86 194 149 194 148 194 86 195 148 195 121 195 121 196 148 196 182 196 121 197 182 197 120 197 120 198 182 198 147 198 120 199 147 199 108 199 108 200 147 200 146 200 108 201 146 201 119 201 119 202 146 202 179 202 119 203 179 203 145 203 119 204 145 204 79 204 79 205 145 205 118 205 118 206 145 206 144 206 118 207 144 207 117 207 117 208 144 208 176 208 117 209 176 209 77 209 77 210 176 210 143 210 77 211 143 211 76 211 76 212 143 212 142 212 76 213 142 213 111 213 111 214 142 214 141 214 111 215 141 215 107 215 107 216 141 216 173 216 107 217 173 217 74 217 74 218 173 218 139 218 74 219 139 219 116 219 116 220 139 220 140 220 116 221 140 221 73 221 73 222 140 222 130 222 73 223 130 223 72 223 72 224 130 224 138 224 72 225 138 225 115 225 196 226 132 226 166 226 166 227 132 227 131 227 131 228 128 228 167 228 167 229 128 229 160 229 171 230 130 230 172 230 164 231 173 231 141 231 164 232 141 232 165 232 177 233 145 233 178 233 185 234 153 234 186 234 186 235 153 235 187 235 187 236 156 236 188 236 188 237 156 237 189 237 163 238 132 238 196 238 163 239 196 239 195 239 163 240 195 240 129 240 129 241 195 241 194 241 129 242 194 242 159 242 159 243 194 243 162 243 161 244 162 244 193 244 161 245 193 245 191 245 161 246 191 246 192 246 158 247 192 247 190 247 158 248 190 249 157 250 157 251 190 251 189 251 157 252 189 252 156 252 155 253 156 253 187 253 155 254 187 254 154 254 154 255 187 255 153 255 153 256 185 256 152 256 152 257 185 257 184 257 152 258 184 258 151 258 150 259 151 259 149 259 148 260 149 260 183 260 148 261 183 261 181 261 148 262 181 262 182 262 147 263 182 263 180 263 147 264 180 264 146 264 146 265 180 265 179 265 145 266 179 267 178 268 144 269 145 269 177 269 144 270 177 270 176 270 143 271 176 271 175 271 143 272 175 272 174 272 143 273 174 273 142 273 142 274 174 274 165 274 142 275 165 275 141 275 139 276 173 276 140 276 130 277 140 277 172 277 138 278 130 278 171 278 138 279 171 279 137 279 136 280 137 280 170 280 133 281 134 281 169 281 133 282 169 282 168 282 197 283 179 283 219 283 219 284 179 284 180 284 219 285 180 285 221 285 221 286 180 286 182 286 221 287 182 287 220 287 220 288 182 288 181 288 220 289 181 289 222 289 222 290 181 290 183 290 222 291 183 291 149 291 222 292 149 292 223 292 223 293 149 293 151 293 223 294 151 294 224 294 224 295 151 295 225 295 225 296 151 296 184 296 225 297 184 297 226 297 226 298 184 298 185 298 226 299 185 299 186 299 227 300 186 300 187 300 227 301 187 301 228 301 228 302 187 302 188 302 228 303 188 303 229 303 229 304 188 304 189 304 229 305 189 305 190 305 229 306 190 306 230 306 230 307 190 307 231 307 231 308 190 308 192 308 231 309 192 309 198 309 198 310 192 310 191 310 198 311 191 311 234 311 234 312 191 312 193 312 234 313 193 313 232 313 232 314 193 314 162 314 232 315 162 315 194 315 232 316 194 316 199 316 199 317 194 317 195 317 199 318 195 318 235 318 235 319 195 319 196 319 235 320 196 320 203 320 203 321 196 321 166 321 203 322 166 322 202 322 202 323 166 323 131 323 202 324 131 324 200 324 200 325 131 325 167 325 200 326 167 326 233 326 233 327 167 327 160 327 233 328 160 328 205 328 205 329 160 329 168 329 205 330 168 330 204 330 204 331 168 331 169 331 204 332 169 332 206 332 206 333 169 333 134 333 206 334 134 334 135 334 206 335 135 335 207 335 207 336 135 336 136 336 136 337 170 337 208 337 208 338 170 338 209 338 209 339 170 339 137 339 209 340 137 340 210 340 210 341 137 341 171 341 210 342 171 342 201 342 201 343 171 343 172 343 201 344 172 344 140 344 201 345 140 345 211 345 211 346 140 346 173 346 211 347 173 347 213 347 213 348 173 348 212 348 212 349 173 349 164 349 212 350 164 350 165 350 214 351 165 351 174 351 214 352 174 352 215 352 215 353 174 353 175 353 215 354 175 354 176 354 216 355 176 355 177 355 217 356 177 356 178 356 217 357 178 357 218 357 218 358 178 358 179 358 218 359 179 359 197 359 217 360 216 360 177 360 227 361 226 361 186 361 207 362 136 362 208 362 215 363 176 363 216 363 209 364 236 364 237 364 209 365 237 365 208 365 208 366 237 366 207 366 207 367 237 367 238 367 207 368 238 368 206 368 206 369 238 369 204 369 204 370 238 370 239 370 204 371 239 371 205 371 205 372 239 372 233 372 233 373 240 373 200 373 200 374 240 374 202 374 202 375 240 375 241 375 202 376 241 376 203 376 203 377 241 377 242 377 203 378 242 378 235 378 235 379 242 379 199 379 199 380 242 380 243 380 199 381 243 381 232 381 232 382 243 382 244 382 232 383 244 383 234 383 234 384 244 384 245 384 234 385 245 385 198 385 198 386 245 386 231 386 231 387 245 387 246 387 231 388 246 388 230 388 230 389 246 389 247 389 230 390 247 390 229 390 229 391 247 391 248 391 229 392 248 392 228 392 228 393 248 393 227 393 227 394 248 394 249 394 227 395 249 395 226 395 226 396 249 396 250 396 226 397 250 397 225 397 225 398 250 398 251 398 225 399 251 399 224 399 224 400 251 400 223 400 223 401 251 401 252 401 223 402 252 402 222 402 222 403 252 403 220 403 220 404 253 404 221 404 221 405 253 405 219 405 219 406 253 406 254 406 219 407 254 407 197 407 197 408 254 408 255 408 197 409 255 409 218 409 218 410 255 410 217 410 217 411 255 411 256 411 217 412 256 412 216 412 216 413 256 413 215 413 215 414 256 414 257 414 215 415 257 415 214 415 214 416 257 416 258 416 214 417 258 417 165 417 165 418 258 418 212 418 212 419 258 419 213 419 213 420 259 420 211 420 211 421 259 421 201 421 201 422 259 422 260 422 201 423 260 423 210 423 210 424 260 424 236 424 210 425 236 425 209 425 236 426 260 426 252 426 252 427 237 427 236 427 239 428 238 428 252 428 252 429 238 429 237 429 240 430 233 430 252 430 252 431 233 431 239 431 252 432 241 432 240 432 243 433 242 433 252 433 252 434 242 434 241 434 252 435 244 435 243 435 246 436 245 436 252 436 252 437 245 437 244 437 248 438 247 438 252 438 252 439 247 439 246 439 252 440 249 440 248 440 251 441 250 441 252 441 252 442 250 442 249 442 252 443 253 443 220 443 255 444 254 444 252 444 252 445 254 445 253 445 252 446 256 446 255 446 258 447 257 447 252 447 252 448 257 448 256 448 259 449 213 449 252 449 252 450 213 450 258 450 252 451 260 451 259 451</p>
        </triangles>
      </mesh>
    </geometry>
    <geometry id="eSeries_UR5e_006-mesh" name="eSeries UR5e.006">
      <mesh>
        <source id="eSeries_UR5e_006-mesh-positions">
          <float_array id="eSeries_UR5e_006-mesh-positions-array" count="846">48.35575 16.20672 -42.38534 51.01942 16.08092 -45.74335 49.82548 16.16468 -49.95846 45.13781 16.1636 -51.05509 42.27987 16.17614 -47.73373 43.43404 16.17811 -43.37384 46.79965 16.17495 51.21286 50.17713 16.18448 49.51348 50.89223 16.11376 44.61724 46.22386 16.1757 42.15285 43.12742 16.14085 43.87614 42.73779 16.13235 49.20662 -45.13779 16.16359 51.05507 -42.04053 16.1974 46.87562 -43.82015 16.07219 43.29353 -48.21832 16.23081 42.25313 -51.20389 16.11024 46.2834 -49.5134 16.18447 50.17718 -43.36524 16.18982 -43.42565 -42.78269 16.08302 -49.18057 -46.79965 16.175 -51.21293 -50.17718 16.18446 -49.51339 -51.05507 16.16359 -45.13779 -47.73373 16.17614 -42.27987 44.62252 16.29995 -53.48686 39.53556 16.30013 -47.15907 42.54732 16.30002 -41.1674 47.80599 16.29933 -39.84068 52.23533 16.30003 -42.64828 53.51847 16.2999 -46.9351 51.49205 16.29979 -51.6788 47.15907 16.30013 39.53556 41.1674 16.30002 42.54732 39.84068 16.29933 47.80599 42.64828 16.30003 52.23533 46.9351 16.2999 53.51847 51.6788 16.29979 51.49205 53.48686 16.29995 44.62252 -47.80599 16.29933 39.84068 -52.23533 16.30003 42.64828 -53.51847 16.2999 46.9351 -51.49205 16.29979 51.6788 -44.62252 16.29995 53.48686 -39.53556 16.30013 47.15907 -42.54732 16.30002 41.1674 -41.1674 16.30002 -42.54732 -39.84068 16.29933 -47.80599 -42.64828 16.30003 -52.23533 -46.9351 16.2999 -53.51847 -51.6788 16.29979 -51.49205 -53.48686 16.29995 -44.62252 -47.15907 16.30013 -39.53556 49.06699 25.15662 -40.09595 53.27195 25.19501 -44.24531 53.27321 25.1849 -48.88182 50.54943 25.18656 -52.45463 44.99726 25.18161 -53.54803 40.47742 25.17657 -49.91357 40.16953 25.12302 -43.78652 44.05129 25.19659 -40.2322 44.24531 25.19501 53.27195 48.88182 25.1849 53.27321 52.45463 25.18656 50.54943 53.54803 25.18161 44.99726 49.91357 25.17657 40.47742 43.78652 25.12302 40.16953 40.23184 25.19696 44.0517 40.09574 25.15692 49.06687 -44.99726 25.18161 53.54803 -40.47742 25.17657 49.91357 -40.16953 25.12302 43.78652 -44.05129 25.19659 40.23219 -49.06699 25.15662 40.09595 -53.27195 25.19523 44.24502 -53.27321 25.1849 48.88182 -50.54943 25.18656 52.45463 -43.78662 25.12292 -40.16958 -40.23224 25.19633 -44.05146 -40.09595 25.15662 -49.06699 -44.24531 25.19501 -53.27195 -48.88182 25.1849 -53.27321 -52.45463 25.18656 -50.54943 -53.54803 25.18161 -44.99726 -49.91357 25.17657 -40.47742 38.34801 25.45067 -53.28848 35.67456 25.44033 -61.19692 32.89199 25.36423 -66.02181 55.15946 25.48365 -38.03432 65.93653 25.35645 -33.03704 43.94054 25.43927 -39.36581 55.85922 25.42318 37.89337 65.91909 25.377 33.04366 33.04236 25.35147 65.94313 38.01509 25.49026 55.18711 39.36584 25.43319 43.96638 -38.34787 25.4507 53.28896 -35.65818 25.4418 61.2283 -32.87381 25.37144 66.01268 -55.20561 25.47291 38.03239 -43.94479 25.43964 39.36363 -65.91361 25.34977 33.05953 -53.2888 25.45068 -38.34791 -61.37928 25.44956 -35.58687 -66.07217 25.34542 -32.84711 -38.01995 25.48634 -55.19692 -32.99654 25.34924 -65.99716 -39.36294 25.43357 -43.97195 1.169032 20.13314 -75.32249 70.16003 9.30559e-7 28.26155 -40.37789 -1.43413e-6 -64.15518 -55.42776 -7.70902e-6 -51.41678 -65.18046 3.09057e-5 -38.36833 -73.82404 4.51899e-5 -17.7083 -75.44989 2.72142e-7 5.730564 -71.23562 4.88238e-5 25.78877 -58.82189 1.43178e-5 47.99523 -40.28589 -3.72183e-5 64.10739 -22.89937 5.88556e-6 72.08543 -6.281715 2.85703e-5 75.37512 13.35894 6.50024e-5 74.57331 32.23982 1.07698e-5 68.42009 48.84484 -2.06274e-5 57.90871 62.13226 2.68595e-5 43.13172 75.19755 2.17659e-5 9.198862 74.88321 1.07723e-5 -10.6404 69.46226 -2.66254e-5 -30.35075 57.40405 -4.04196e-5 -49.37191 39.63384 25.45407 -43.15463 43.0315 25.46969 39.67233 39.24603 72.024 -44.05192 37.97137 46.40673 -55.30846 57.71621 25.21097 -46.20387 44.45928 25.23055 -59.14353 60.13004 36.87078 -36.07599 53.79188 49.90278 38.21476 46.20217 25.21063 57.71931 59.11579 25.23043 44.48296 35.22818 33.48734 61.8675 38.34647 51.74805 52.95722 -39.63385 25.45392 43.15507 -43.03153 25.47026 -39.67196 -38.43624 53.30039 52.29137 -36.0273 36.49732 60.34147 -56.93328 25.25423 46.99133 -44.28941 25.20634 59.37432 -59.97204 37.1754 36.15468 -51.14614 55.82133 38.5917 -44.45573 71.16363 -39.1457 -52.11464 53.62409 -38.46733 -60.06904 37.18876 -36.15732 -57.86698 25.22929 -46.04034 -45.71883 25.22084 -58.0711 -36.02907 36.72579 -60.22797 -38.60808 56.19432 -50.97945 -39.40222 73.0973 -43.55031 38.66432 -3.39569e-5 -65.33331 17.4647 -2.3773e-5 -73.58902 -21.67653 1.7832e-6 -72.46185 -1.950932 2.31846e-4 -75.74974 -8.342447 19.46781 -74.94214 11.09817 20.00449 -74.58919 -27.65876 21.04898 -69.92531 -17.36982 19.86392 -73.39954 20.01641 19.719 -72.6583 29.97743 20.00792 -69.1154 42.34375 19.87976 -62.43536 55.11459 19.34124 -51.58275 63.55363 19.69482 -40.52084 68.55702 19.74177 -31.29572 71.72583 20.04364 -23.14686 74.92772 20.02479 -8.804303 75.20695 20.25311 3.529474 73.57757 20.37986 16.13158 70.14009 19.93388 27.80273 66.36315 19.76559 35.70927 60.86062 19.69274 44.46298 55.39355 19.55647 51.20223 49.00563 19.31078 57.33525 40.28005 19.70242 63.70463 28.85225 19.57285 69.7166 18.48242 20.1742 72.98648 8.747304 20.38911 74.76917 -2.826938 19.66117 75.33129 -13.71222 20.16101 74.03913 -27.69797 19.93385 70.19279 -40.13339 19.4751 63.80169 -48.16439 19.48804 57.99009 -57.55288 19.28973 48.93426 -68.17096 20.04231 32.21384 -71.13187 19.57739 25.00346 -73.91508 20.00121 14.58714 -75.21923 20.2408 3.593397 -75.16333 19.06082 -7.88 -70.63193 17.90955 -26.92435 -65.56101 19.92665 -37.18969 -58.65158 19.55672 -47.42047 -51.24929 19.53832 -55.3016 -40.24956 19.45837 -63.87371 44.03048 72.16259 -39.35846 39.52186 74.70459 42.92106 44.28775 71.34418 39.20032 -42.96154 73.86337 39.60677 -39.25044 72.05487 44.03852 -62.97618 24.77788 39.23313 -71.29032 22.574 -22.81308 42.30088 76.15819 -40.09523 -43.07696 76.48253 -39.25985 51.97133 74.7999 26.45032 48.69733 72.6449 -33.05369 21.71943 74.76669 -54.13786 31.22247 72.5418 -49.91167 -54.11158 74.9027 -21.82723 -48.43644 74.65348 32.52646 -33.56356 74.67153 47.79636 56.41355 74.92163 -14.80425 0.8732245 74.89987 -58.36999 -9.820315 74.89367 -57.51767 -57.98874 74.84877 -7.050844 -58.14867 74.80747 4.803928 -56.43292 74.98361 14.68587 -10.69537 75.21712 57.30907 -0.3642292 74.96942 58.34952 6.926367 75.65731 57.78571 55.98588 74.86011 16.60304 58.11077 75.07062 4.836221 58.08348 75.15258 -5.015442 15.50383 74.74598 56.27682 28.03257 74.93746 51.15446 34.76998 77.58883 46.57857 46.72955 74.86959 34.90144 52.39951 74.47814 -25.81929 32.76835 78.14759 -48.08034 12.43564 74.70716 -57.00326 -19.58368 74.8629 -54.96995 -28.9711 74.75907 -50.67374 -49.4964 74.17813 -31.19855 -56.24459 77.56147 -14.56876 -53.10853 74.94734 24.00348 -23.4558 74.58451 53.47303 -49.79159 84.9155 29.68787 -14.88153 84.86515 55.98391 -36.852 84.95024 44.79548 -54.14479 84.93106 20.76412 -55.01316 84.96336 -18.42889 32.8389 84.90243 47.76353 54.13874 84.93376 20.78858 -2.485489 84.95761 -57.96022 -9.904545 84.90109 -57.0522 -17.20334 84.9671 -55.41365 -24.14383 84.90118 -52.63211 -30.74014 84.93797 -49.18157 -38.75635 84.93334 -43.14041 -43.91424 84.90692 -37.75229 -48.49019 84.94623 -31.82748 -52.08943 84.90192 -25.29565 -56.82612 84.9031 -11.13758 -57.89416 84.95941 -3.740669 -57.78619 84.90093 3.714314 -56.93753 84.95108 11.11535 -43.95645 84.90295 37.78002 -30.72631 84.90076 49.08074 -24.20972 84.96527 52.72829 -4.985959 84.89959 57.74552 2.497214 84.90145 57.85486 10.06915 84.72256 57.00576 17.17933 84.90064 55.29801 24.08768 84.8773 52.69426 40.55098 84.91075 41.42865 47.04571 84.86019 33.79151 50.95512 84.90038 27.50597 56.88101 84.90616 11.16965 57.7866 84.90048 3.745389 57.84454 84.904 -3.734111 56.29276 84.86056 -13.64986 53.25086 84.96939 -23.04418 49.73459 84.90328 -29.6602 45.58822 84.96543 -35.89068 38.73046 84.89061 -43.10684 30.79787 84.96373 -49.17126 17.22509 84.96694 -55.40673 24.16856 84.9011 -52.62068 7.493667 84.8961 -57.4687</float_array>
          <technique_common>
            <accessor source="#eSeries_UR5e_006-mesh-positions-array" count="282" stride="3">
              <param name="X" type="float"/>
              <param name="Y" type="float"/>
              <param name="Z" type="float"/>
            </accessor>
          </technique_common>
        </source>
        <source id="eSeries_UR5e_006-mesh-normals">
          <float_array id="eSeries_UR5e_006-mesh-normals-array" count="1557">0.003313601 0.9999929 0.001838505 -0.0108869 0.9998123 -0.01603108 -0.004520535 0.9999169 -0.01208311 0.006898105 0.9999201 -0.01060444 -0.03474789 0.9992401 -0.01766604 -0.002181172 0.9998336 -0.01811254 0.01338124 0.9998827 0.007453799 0.02463018 0.998538 0.04811722 -0.005222618 0.9997586 0.02134591 0.009829401 0.9999408 0.00468254 -0.008214116 0.9997785 -0.01938492 0.0117039 0.9999252 -0.003550827 0.004842996 0.9999381 -0.01001965 0.01281833 0.9997196 0.01991248 0.001475393 0.999341 -0.03627038 0.001330375 0.9997436 0.02260816 0.05566525 0.9974738 0.04413092 0.05418682 0.9975814 0.04353296 0.04267591 0.99902 -0.01174896 0.0609613 0.9976703 -0.03062498 0.004882156 0.9985714 -0.05321145 0.008826255 0.999367 -0.03446441 -0.02687722 0.9987496 -0.0421549 -0.02803903 0.9978271 -0.05962467 -0.1016565 0.9943533 -0.03045809 -0.06863445 0.9968695 0.03925001 -0.05617392 0.9981333 0.02397269 -0.01513266 0.9978538 0.06370848 -0.01557493 0.9981209 0.05926465 0.01894807 0.9983485 0.05423456 0.03446334 0.9970489 0.06859952 0.07612133 0.9970729 0.007154941 0.05124431 0.9986008 0.01305991 0.08281499 0.9951732 -0.05265051 0.01658719 0.9983605 -0.05478382 0.01651543 0.9983457 -0.05507469 -0.02917212 0.998201 -0.05238109 -0.01876115 0.9988566 -0.04397249 -0.04836779 0.9985985 -0.02148848 -0.0715245 0.9972616 -0.01880204 -0.07147186 0.9934692 0.08894276 -0.009941935 0.9989847 0.04394125 0.02035397 0.9992851 0.03186094 0.02173233 0.9987062 0.04597592 0.0891028 0.9956645 0.02670091 0.06799405 0.9965055 -0.0485143 0.04397702 0.9988564 -0.01876246 0.01593309 0.9983218 -0.05567711 0.01557606 0.9981206 -0.05926781 -0.06712037 0.9968741 -0.0416767 -0.03755021 0.9988396 -0.0301572 -0.039227 0.9991112 -0.0154367 -0.0967462 0.9941212 0.04861259 0.009327352 0.9936572 0.1120646 -0.006993293 0.9996055 0.02720022 -0.02787226 0.9980705 -0.05548506 -0.04102051 0.9989007 -0.0226894 -0.06556588 0.997709 -0.0166729 -0.1037729 0.9924132 0.06593441 -0.01272708 0.997445 0.07029682 -0.01650887 0.9983469 0.05505287 0.02914345 0.9982029 0.05236107 0.01876342 0.9988563 0.04397875 0.05567872 0.9983217 0.01593291 0.05926662 0.9981207 0.01557612 0.0441339 0.9974734 -0.05566877 0.04353266 0.9975814 -0.05418872 -0.01418668 0.99901 -0.04216575 -0.5346584 0.05180919 -0.8434787 -0.7014309 -0.04595571 -0.7112544 -0.9562754 0.06005257 -0.2862365 -0.999618 -0.02763992 -2.11988e-4 -0.9179193 0.06057536 0.392116 -0.794871 -0.03140997 0.605965 -0.2541112 0.05733412 0.9654742 -0.1932115 0.01490902 0.9810439 0.6265235 -0.02106881 0.7791178 0.7745629 0.1110376 0.6226741 0.9947006 -0.09027969 0.04919654 0.8883599 0.1068565 -0.4465405 0.6752383 -0.03670966 -0.7366857 0.2441879 0.06045883 -0.9678414 0.02687978 -0.0326212 -0.9991064 2.12996e-4 -0.0276395 -0.999618 -0.3921162 0.06057536 -0.9179192 -0.605966 -0.03140997 -0.7948703 -0.9654741 0.05733436 -0.2541115 -0.9810439 0.01490914 -0.193211 -0.7791177 -0.02106821 0.6265236 -0.6226741 0.1110371 0.774563 -0.04919707 -0.09027987 0.9947006 0.446541 0.1068561 0.8883597 0.7366837 -0.03670942 0.6752405 0.9678403 0.0604844 0.2441859 0.999108 -0.03259247 0.02685254 0.843478 0.05181986 -0.5346585 0.7112451 -0.04595291 -0.7014405 0.2862371 0.06005257 -0.9562752 -0.6265235 -0.02106881 -0.7791178 -0.7745629 0.1110376 -0.6226741 -0.9947006 -0.09027969 -0.04919654 -0.8883599 0.1068565 0.4465405 -0.6752397 -0.03670895 0.7366844 -0.2441856 0.06045931 0.9678421 -0.02687907 -0.03262114 0.9991063 0.5346574 0.05180925 0.8434793 0.7014054 -0.04593908 0.7112807 0.9562751 0.06006008 0.2862356 0.9996179 -0.02763944 2.09863e-4 0.9179193 0.06057536 -0.392116 0.794871 -0.03140997 -0.605965 0.2541112 0.05733412 -0.9654742 0.1932115 0.01490843 -0.9810439 -0.4465401 0.1068474 -0.8883612 -0.7366904 -0.03672522 -0.6752324 -0.9678423 0.06045091 -0.2441864 -0.9991059 -0.03262299 -0.026892 -0.8434783 0.05180853 0.534659 -0.7112538 -0.04595577 0.7014315 -0.2862371 0.06005257 0.9562752 -2.12996e-4 -0.0276395 0.999618 0.3921162 0.06057536 0.9179192 0.605966 -0.03140997 0.7948703 0.9654741 0.05733436 0.2541115 0.9810439 0.01490914 0.193211 0.7791177 -0.02106821 -0.6265236 0.6226741 0.1110371 -0.774563 0.04918736 -0.09028261 -0.9947009 0.4723715 0.879339 -0.06023293 0.07176536 0.8660129 0.494845 -0.4722496 0.8794064 0.06020736 -0.06637167 0.8626539 -0.5014212 9.45327e-7 -1 2.12046e-6 1.19771e-7 -1 0 4.10051e-7 -1 4.65258e-7 2.97856e-7 -1 -1.89572e-6 5.88043e-6 -1 4.60966e-7 -4.03385e-6 -1 -3.564e-6 -7.19875e-7 -1 6.14995e-7 -9.28477e-7 -1 6.85192e-7 -5.04384e-7 -1 -2.61832e-6 -1.39987e-5 -1 7.48515e-6 -3.14619e-7 -1 -1.37799e-6 -4.31495e-6 -1 -3.82944e-6 2.1795e-7 -1 -2.35098e-7 1.37955e-5 -1 9.19128e-6 -4.65899e-7 -1 4.96471e-7 -3.82454e-7 -1 2.50089e-6 -1.22693e-6 -1 2.0423e-6 5.42412e-6 -1 4.05567e-7 1.22938e-6 -1 2.72363e-6 2.01216e-6 -1 3.85139e-6 -0.1168197 0.02274042 0.9928928 -0.7287386 0.01974684 -0.6845074 -0.645998 -0.01359808 -0.7632181 0.9920599 0.005840659 -0.1256307 0.9920297 0.005696117 -0.1258757 0.9472492 -0.01384001 -0.3201991 0.8650539 0.04555171 -0.4996069 0.2128357 0.9476024 -0.2382243 -0.04430276 0.9979169 0.04689478 -0.01137107 0.9998937 0.00913316 -0.004552245 0.9999873 -0.002180278 -0.006634712 0.9999542 -0.006906688 0.2408745 0.9285973 -0.282288 0.01495361 0.9633239 -0.2679244 0.02233254 0.9750919 -0.2206744 -0.04224056 0.9985435 -0.03356772 0.1057853 0.9942904 0.01400601 0.01316934 0.9997555 0.01776438 0.2700173 0.9583988 -0.09253489 0.03182744 0.9989112 -0.03411084 0.02233213 0.9997289 0.006595194 -0.00266385 0.999956 0.00899899 0.03872829 0.9975576 -0.05813008 0.420246 -0.02745842 -0.9069947 0.2843328 0.04061746 -0.9578648 0.1178564 -7.06196e-5 -0.9930307 0.1186781 0.006966173 0.9929084 0.1373605 -0.001404225 0.9905201 0.4342155 0.02484774 0.9004663 0.006672859 0.999957 -0.006446838 0.002180635 0.9999877 -0.00447148 -0.03107076 0.9992322 0.02387058 -0.00901401 0.9999558 -0.0026654 -0.04675394 0.9979318 -0.04411494 -0.009017467 0.9998965 -0.01121586 0.05970782 0.9973951 0.04047375 0.2744859 0.9327945 0.2335636 0.03417229 0.9985005 -0.04276549 0.2193506 0.9754104 0.02144503 0.2617875 0.965012 0.01480776 0.2378351 0.9480906 0.2110899 0.0150901 0.9996489 0.02178263 -0.005798339 0.9994679 0.03209954 -0.01210415 0.9976555 0.06735843 0.9073356 -0.03385156 0.4190423 0.9307254 0.01926839 0.3652108 0.9933983 -7.11867e-4 0.1147138 0.9928278 -0.002379 0.1195292 -0.9937124 0.006056368 0.111799 -0.9920434 0.00136125 0.12589 -0.9471099 -0.005884349 0.3208554 -0.9534232 0.007775664 0.301536 -0.8641591 0.01150262 0.5030872 0.01432806 0.9998946 -0.002378702 0.01778471 0.9998394 0.002230882 0.001769304 0.9999886 -0.004457652 0.05759024 0.996827 -0.05494952 0.03161346 0.9991984 -0.02456015 -0.01320636 0.9997543 -0.01780998 -0.03474599 0.9987863 0.03491014 -0.02706599 0.9996333 -9.53642e-4 0.04070943 0.9986597 0.0319646 -0.02282625 0.9758004 0.2174687 -0.01494973 0.9633707 0.2677565 -0.2408656 0.9286029 0.2822775 -0.2701056 0.9583695 0.09257954 -0.1057875 0.9942902 -0.0140056 -0.03762006 0.9977048 0.05630248 -0.2132866 0.9473199 0.2389434 -0.4208148 -0.02590245 0.9067767 -0.3138089 0.0244832 0.9491705 -0.1174281 -0.002601802 0.9930781 -0.1174094 -0.002597093 0.9930803 -0.1066738 0.008126199 -0.9942609 -0.1280228 0.001131951 -0.9917707 -0.3229631 -0.009940922 -0.9463595 -0.2945077 0.008223533 -0.9556139 -0.5043643 0.01433885 -0.8633719 0.0103324 0.9999424 0.002925813 0.04594284 0.9978986 0.04569107 0.0180782 0.9997465 -0.01342302 0.01240891 0.9998003 0.015666 -0.005657792 0.9999587 0.007118105 -0.002181053 0.9999793 0.006051361 -0.04284507 0.9984532 -0.03543472 0.01491457 0.9997599 -0.01605468 -0.09201836 0.9586662 -0.2692428 0.01402091 0.9942928 -0.1057613 -0.05909085 0.997445 -0.04014545 -0.2748 0.9325975 -0.2339805 -0.2391746 0.9475197 -0.2121368 -0.03364396 0.9985378 0.04231506 -0.2186419 0.9755667 -0.02157253 -0.2619899 0.9649578 -0.0147596 -0.9064998 -0.02800214 -0.4212769 -0.9477419 0.02552556 -0.3180155 -0.9943055 1.23308e-4 -0.1065673 -0.9929136 -0.002699196 -0.1188081 0.7765001 0.007547736 0.6300719 -0.04187631 0.02768409 -0.9987392 1.01233e-5 -1 -9.23857e-6 0.3907127 -6.07229e-4 -0.9205125 0.6605052 0.01055604 -0.7507473 0.7940943 -0.005097448 -0.6077733 0.7604672 0.01136684 0.6492769 0.6115744 -0.008607566 0.7911401 -0.6603993 0.009639441 0.7508528 -0.7678459 -0.00582683 0.640608 -0.7576985 0.004597127 -0.6525887 -0.7607206 0.005114912 -0.6490594 -0.112839 0.007926166 -0.9935817 -0.4341632 0.8543241 0.2857146 -0.4450166 0.2365833 -0.8637064 -0.5016738 0.3293363 -0.7999131 -0.6003206 0.2078743 -0.7722717 -0.7038584 0.2583443 -0.6616961 -0.6664294 0.3205174 -0.6731573 -0.7995252 0.2441066 -0.5487911 -0.8014472 0.3261462 -0.5013095 -0.852371 0.2935721 0.4327574 -0.7677463 0.2691703 0.5814749 -0.6682375 0.2866457 0.6865078 -0.6685948 0.2922059 0.6838105 -0.5745476 0.1970386 0.7943997 -0.4416791 0.3255439 0.8360267 0.5810245 0.2251771 0.7821162 0.6616699 0.2688469 0.6999388 0.6736626 0.3369794 0.6577414 0.7525393 0.234892 0.6152321 0.8175179 0.2557235 0.5160136 0.7751216 0.2043138 -0.5978651 0.6603769 0.3268418 -0.6760746 0.6389518 0.2037258 -0.7417793 -0.8906355 0.2233821 -0.396067 -0.9694749 0.07021999 -0.2349205 -0.8353784 0.1219229 0.5359831 0.5582597 0.3081796 0.7703061 0.5294929 0.2972681 0.7945244 0.8670703 0.2680858 0.4199038 0.818773 0.2979251 0.4907662 0.5031816 0.3278447 0.7995788 0.4503636 0.2357749 0.8611521 0.8131731 0.2964876 0.500844 0.8127433 0.2962907 0.5016576 0.7129361 0.2865994 0.6399868 0.7580438 0.2915443 -0.5834137 0.8153223 0.3022812 -0.4938376 0.8340395 0.2980628 -0.4642593 0.3827378 0.2969982 -0.8748164 0.4632431 0.2405676 -0.8529555 0.4887633 0.3087418 -0.815959 0.799653 0.3281495 -0.5028648 0.8498303 0.2532845 -0.4622072 0.4455992 0.3033824 -0.8422592 0.4948043 0.2964553 -0.8168739 0.5744093 0.3051759 -0.7595538 -0.5493943 0.2980446 -0.7805992 -0.5694941 0.3081734 -0.7620404 -0.3995874 0.3010772 -0.8658422 -0.4704769 0.296122 -0.8312421 -0.8693706 0.3405914 -0.3580397 -0.8461301 0.3008293 -0.4399608 -0.8651208 0.2916932 -0.408021 -0.8874901 0.2342926 -0.3968228 -0.7745124 0.2963003 -0.558871 -0.7481736 0.3038898 -0.5898197 -0.7379214 0.3007597 0.6041653 -0.7732377 0.2924679 0.562642 -0.831764 0.30116 0.4663382 -0.8360232 0.299758 0.4595764 -0.451178 0.3004627 0.8403336 -0.4646098 0.3033795 0.8319247 -0.3915401 0.2968538 0.8709617 -0.4964096 0.180276 0.8491632 -0.6174392 0.2942197 0.729523 -0.5609147 0.2909125 0.7750772 0.9334956 0.2920899 -0.2080137 0.8922613 0.3002298 -0.3372413 0.8861427 0.2971563 -0.3555971 0.8809759 0.2969127 -0.3684081 0.312696 0.2941845 -0.9031482 0.2797371 0.2983634 -0.9125385 0.211219 0.2944661 -0.9320281 0.1168813 0.3013665 -0.9463177 0.0741744 0.2952489 -0.9525368 -0.05876535 0.2948973 -0.9537202 -0.07603448 0.2971898 -0.9517862 -0.1485435 0.2929697 -0.9445124 -0.3962923 0.3005611 -0.8675342 -0.2422488 0.293361 -0.9247999 -0.2737458 0.3011758 -0.9134312 -0.9208724 0.3068398 -0.2405066 -0.9402272 0.2920567 -0.175145 -0.9550057 0.2945219 -0.03494316 -0.9542463 0.2987876 -0.01183259 -0.9483654 0.2940471 0.118909 -0.9410884 0.2989438 0.1580673 -0.9208704 0.2923358 0.2579486 -0.8985968 0.298311 0.3217676 -0.8901435 0.2960051 0.3464472 -0.8576091 0.2979583 0.4191986 -0.2882181 0.3005267 0.9091832 -0.2579026 0.2938199 0.9204109 -0.09932166 0.2942866 0.9505424 -0.08868622 0.2959651 0.9510728 0.02804493 0.2922582 0.9559282 0.04599618 0.2948095 0.9544484 0.1958052 0.2939391 0.9355534 0.1783385 0.2969715 0.938085 0.3028993 0.2941015 0.9065078 0.3568532 0.3016967 0.8841013 0.3764658 0.2994995 0.8766834 0.4592015 0.2961738 0.8375052 0.8705263 0.2979277 0.3916925 0.8823821 0.3011112 0.3615715 0.9141432 0.2927504 0.2804274 0.9485934 0.2929885 0.119701 0.937431 0.3011852 0.174673 0.9395961 0.2985932 -0.1673361 0.9554814 0.293807 -0.02707016 0.9546488 0.2977343 -1.67693e-4 -0.6254267 0.3827927 0.6799347 0.6531516 0.2128627 -0.7266929 0.7081196 0.2929446 0.6424563 -0.9639247 -0.08201688 -0.2532243 -0.7936943 0.1933635 -0.5767668 0.4333467 0.1696506 -0.8851154 0.5910478 0.09855103 -0.8005937 0.7745361 0.2263671 -0.5906368 0.7682267 0.405018 -0.4957705 0.5799363 -0.07340842 0.8113477 -0.09985899 0.01403796 0.9949026 -0.3287808 0.04380196 0.94339 -0.2881819 0.006481766 0.9575538 -0.1751586 0.05898523 0.9827718 -0.4884516 0.02709645 0.8721702 -0.4893342 0.02627438 0.8717005 -0.5720184 0.05590885 0.8183332 -0.6574149 0.009649813 0.753467 -0.8098663 0.05461269 0.5840668 -0.7017832 0.0542916 0.7103189 -0.7890708 0.0304116 0.6135491 -0.8765066 0.01732474 0.481078 -0.8976516 0.04893749 0.4379806 -0.9852306 0.01132762 0.1708579 -0.9417746 0.01128691 0.3360556 -0.959298 0.05093497 0.2777648 -0.9923867 0.04788732 0.1134702 -0.9993174 0.03444397 -0.01336163 -0.9998841 0.004599988 0.01451796 -0.9881173 0.05609303 -0.1431013 -0.9757403 0.02439409 -0.2175677 -0.9698994 0.03574663 -0.2408679 -0.9583255 0.0105521 -0.2854841 -0.9187629 0.04995483 -0.3916369 -0.8959317 0.02740216 -0.4433459 -0.8747283 0.05360746 -0.4816395 -0.7869205 0.03755927 -0.6159102 -0.7909622 0.03074353 -0.6110923 -0.01460236 0.05393368 0.9984378 0.07442784 0.0282036 0.9968276 0.1124036 0.04643058 0.9925773 0.1756528 0.02377873 0.984165 0.2318732 0.05535274 0.9711699 0.3525934 0.03196954 0.9352304 0.3783439 0.006763339 0.9256405 0.4898734 0.05968534 0.8697481 0.5582894 0.01300674 0.8295443 0.6341397 0.0423488 0.772058 0.6281337 0.05020546 0.7764841 0.7433274 0.02280592 0.6685389 0.7610697 0.04778504 0.6469078 0.8495011 0.03162533 0.5266384 0.8486796 0.03019714 0.5280446 0.9026007 0.0460782 0.4280056 0.9258992 0.01290607 0.3775503 0.9598563 0.06237959 0.273468 0.9840208 0.008509278 0.1778504 0.9915908 0.04611945 0.1209166 0.9993979 0.03381937 0.007757365 0.9996884 0.02483338 -0.002562582 0.9869661 0.04450601 -0.1546518 0.9851434 0.03157889 -0.1688061 0.950467 0.04723405 -0.3072156 0.9392724 0.01447319 -0.3428673 0.8815947 0.05253678 -0.4690744 0.8325088 0.008721649 -0.5539432 0.8145573 -0.02741694 -0.5794351 0.7233355 0.05846881 -0.6880169 0.6418976 -0.001993954 -0.7667878 0.6069126 0.04848736 -0.7932882 0.4616274 -0.008515357 -0.8870331 0.4768256 0.01633721 -0.8788461 0.3723431 0.04876732 -0.9268131 0.2948344 0.01104891 -0.9554846 0.2065779 0.05557334 -0.9768506 0.1175704 0.01166456 -0.9929961 0.04946684 0.05714374 -0.9971398 -0.07945162 0.01407617 -0.9967395 -0.121699 0.04509544 -0.9915422 -0.2184608 0.04350578 -0.9748755 -0.2525065 0.01700174 -0.9674459 -0.3719816 0.04692143 -0.9270535 -0.4162459 0.02260184 -0.9089711 -0.4627332 0.04933303 -0.8851239 -0.5662351 0.0223757 -0.82394 -0.6007711 0.06038886 -0.797137 -0.7326881 0.06344765 -0.6776006 -0.7215261 0.05184429 -0.6904435 0.9021894 0.01082628 0.4312043 -0.1941909 -0.006567597 0.9809418 0.964109 -0.01357805 -0.2651595 -0.978509 -0.01594716 0.2055869 -0.9970126 -0.0343942 -0.06915855 0.6483835 -0.01026529 -0.7612447 -0.1643986 -0.01305842 -0.9863076 0.8799144 -0.009963512 0.475028 0.9998743 -7.71145e-4 -0.01584225 0.110593 -0.01448833 -0.9937602 0.966789 0.006847679 0.2554845 0.3628195 -0.01858794 -0.9316741 -0.921979 -0.03416341 -0.3857301 -0.5861418 0.01730412 0.8100237 -0.4059265 -0.005236744 -0.9138908 0.2121421 0.01866453 -0.9770607 0.8443635 -0.02309006 -0.5352729 0.1807062 0.03142976 0.9830348 -0.4575483 0.01753711 0.8890119 0.5347969 -0.01604568 0.8448284 -0.8726427 -0.02294766 0.4878199 -0.8009526 -0.009701848 -0.5986494 0.3098445 -0.009351015 0.9507413 -0.8432072 0.02934056 0.5367876 -0.4170112 -0.01409935 0.908792 0.9911714 0.03531402 0.1277976 0.0407899 -0.004939913 0.9991555 0.7434467 -0.01970213 0.6685049 -0.9707776 0.05252903 -0.2341614 0.9313963 0.02532708 -0.3631247 -0.9926953 0.0238012 0.1182783 -0.2654891 0.0275911 0.963719 -0.9658339 0.01549613 0.2586985 0.6921706 0.01566433 0.721564 -0.9999243 0.01076465 -0.005978822 0.6473206 -0.008704781 -0.7621683 -0.1688535 -0.009916365 -0.9855913 0.4752097 0.04017448 -0.8789551 0.9997238 -0.006764948 -0.02250778 -0.6557748 -0.02829784 0.7544261 0.9592773 -0.01960498 0.2817852 0.3350813 0.00110948 -0.9421886 -0.4347732 0.01589214 -0.9003998 0.5900436 0.0190562 0.8071465 -0.9253101 0.02009403 0.3786786 0.3006579 -0.001338362 0.9537312 -0.6145448 0.01546221 -0.7887305 0.7944309 0.02467024 -0.6068534 0.9758257 0.01780396 -0.2178243 0.8464109 0.01867836 0.5322029 -0.828297 0.01730614 -0.5600219 0.07377552 0.009730041 -0.9972274 -0.6943176 0.01064652 0.71959 -0.3173409 0.0240513 -0.9480066 0.8788632 0.01747953 -0.4767537 0.465278 0.02191269 0.8848935 0.04842507 0.001358151 0.9988259 -0.8972374 0.008976697 -0.4414573</float_array>
          <technique_common>
            <accessor source="#eSeries_UR5e_006-mesh-normals-array" count="519" stride="3">
              <param name="X" type="float"/>
              <param name="Y" type="float"/>
              <param name="Z" type="float"/>
            </accessor>
          </technique_common>
        </source>
        <vertices id="eSeries_UR5e_006-mesh-vertices">
          <input semantic="POSITION" source="#eSeries_UR5e_006-mesh-positions"/>
        </vertices>
        <triangles material="JointGrey_007-material" count="519">
          <input semantic="VERTEX" source="#eSeries_UR5e_006-mesh-vertices" offset="0"/>
          <input semantic="NORMAL" source="#eSeries_UR5e_006-mesh-normals" offset="1"/>
          <p>10 0 11 0 8 0 6 1 7 1 8 1 11 2 6 2 8 2 17 3 12 3 14 3 12 4 13 4 14 4 16 5 17 5 14 5 21 6 22 6 19 6 15 7 16 7 14 7 2 8 3 8 1 8 3 9 4 9 1 9 23 10 18 10 19 10 4 11 5 11 1 11 22 12 23 12 19 12 20 13 21 13 19 13 5 14 0 14 1 14 9 15 10 15 8 15 3 16 24 16 4 16 4 17 24 17 25 17 4 18 25 18 5 18 5 19 25 19 26 19 5 20 26 20 0 20 0 21 26 21 27 21 0 22 27 22 28 22 0 23 28 23 1 23 1 24 28 24 29 24 1 25 29 25 2 25 2 26 29 26 30 26 2 27 30 27 3 27 3 28 30 28 24 28 9 29 31 29 10 29 10 30 31 30 32 30 10 31 32 31 11 31 11 32 32 32 33 32 11 33 33 33 34 33 11 34 34 34 6 34 6 35 34 35 35 35 6 36 35 36 7 36 7 37 35 37 36 37 7 38 36 38 8 38 8 39 36 39 37 39 8 40 37 40 31 40 8 41 31 41 9 41 15 42 38 42 39 42 15 43 39 43 16 43 16 44 39 44 40 44 16 45 40 45 17 45 17 46 40 46 41 46 17 47 41 47 12 47 12 48 41 48 42 48 12 49 42 49 13 49 13 50 42 50 43 50 13 51 43 51 14 51 14 52 43 52 44 52 14 53 44 53 15 53 15 54 44 54 38 54 18 55 51 55 45 55 18 56 45 56 19 56 19 57 45 57 46 57 19 58 46 58 47 58 19 59 47 59 20 59 20 60 47 60 48 60 20 61 48 61 21 61 21 62 48 62 49 62 21 63 49 63 22 63 22 64 49 64 50 64 22 65 50 65 23 65 23 66 50 66 51 66 23 67 51 67 18 67 27 68 52 68 28 68 28 69 52 69 53 69 28 70 53 70 29 70 29 71 53 71 54 71 29 72 54 72 30 72 30 73 54 73 55 73 30 74 55 74 24 74 24 75 55 75 56 75 24 76 56 76 57 76 24 77 57 77 25 77 25 78 57 78 58 78 25 79 58 79 26 79 26 80 58 80 59 80 26 81 59 81 27 81 27 82 59 82 52 82 35 83 60 83 61 83 35 84 61 84 36 84 36 85 61 85 62 85 36 86 62 86 37 86 37 87 62 87 63 87 37 88 63 88 64 88 37 89 64 89 31 89 31 90 64 90 65 90 31 91 65 91 32 91 32 92 65 92 66 92 32 93 66 93 33 93 33 94 66 94 67 94 33 95 67 95 34 95 34 96 67 96 60 96 34 97 60 97 35 97 42 98 68 98 69 98 42 99 69 99 43 99 43 100 69 100 70 100 43 101 70 101 44 101 44 102 70 102 71 102 44 103 71 103 38 103 38 104 71 104 72 104 38 105 72 105 39 105 39 106 72 106 73 106 39 107 73 107 40 107 40 108 73 108 74 108 40 109 74 109 41 109 41 110 74 110 75 110 41 111 75 111 42 111 42 112 75 112 68 112 51 113 76 113 45 113 45 114 76 114 77 114 45 115 77 115 46 115 46 116 77 116 78 116 46 117 78 117 47 117 47 118 78 118 79 118 47 119 79 119 48 119 48 120 79 120 80 120 48 121 80 121 49 121 49 122 80 122 81 122 49 123 81 123 50 123 50 124 81 124 82 124 50 125 82 125 83 125 50 126 83 126 51 126 51 127 83 127 76 127 58 128 84 128 127 128 65 129 90 129 128 129 70 130 95 130 139 130 76 131 101 131 140 131 118 132 117 132 108 132 109 133 157 133 108 133 126 134 125 134 108 134 113 135 112 135 108 135 124 136 123 136 108 136 120 137 119 137 108 137 156 138 155 138 108 138 155 139 126 139 108 139 116 140 115 140 108 140 158 141 156 141 108 141 115 142 114 142 108 142 121 143 120 143 108 143 110 144 109 144 108 144 122 145 121 145 108 145 112 146 111 146 108 146 114 147 113 147 108 147 111 148 110 148 108 148 125 149 124 149 108 149 117 150 116 150 108 150 119 151 118 151 108 151 183 152 118 152 182 152 196 153 110 153 195 153 196 154 109 154 110 154 129 155 127 155 130 155 130 156 127 156 84 156 85 157 130 157 84 157 85 158 86 158 130 158 59 159 127 159 89 159 55 160 131 160 132 160 55 161 54 161 131 161 131 162 54 162 53 162 131 163 53 163 88 163 58 164 127 164 59 164 59 165 89 165 52 165 52 166 89 166 87 166 52 167 87 167 53 167 57 168 84 168 58 168 56 169 85 169 57 169 57 170 85 170 84 170 132 171 86 171 85 171 132 172 85 172 56 172 132 173 56 173 55 173 53 174 87 174 88 174 133 175 88 175 87 175 87 176 198 176 133 176 198 177 87 177 89 177 200 178 128 178 134 178 134 179 128 179 90 179 90 180 91 180 134 180 60 181 92 181 135 181 60 182 135 182 61 182 63 183 90 183 64 183 62 184 136 184 63 184 62 185 135 185 136 185 62 186 61 186 135 186 60 187 93 187 92 187 66 188 65 188 128 188 93 189 60 189 67 189 93 190 67 190 94 190 94 191 67 191 66 191 66 192 128 192 94 192 136 193 91 193 90 193 136 194 90 194 63 194 64 195 90 195 65 195 137 196 92 196 93 196 93 197 138 197 137 197 199 198 138 198 94 198 138 199 93 199 94 199 202 200 139 200 141 200 141 201 139 201 95 201 96 202 142 202 95 202 95 203 142 203 141 203 97 204 142 204 96 204 73 205 100 205 143 205 73 206 143 206 74 206 75 207 144 207 68 207 75 208 143 208 144 208 75 209 74 209 143 209 68 210 96 210 69 210 144 211 97 211 96 211 144 212 96 212 68 212 73 213 72 213 98 213 98 214 72 214 99 214 99 215 72 215 71 215 70 216 139 216 71 216 96 217 95 217 69 217 69 218 95 218 70 218 73 219 98 219 100 219 71 220 139 220 99 220 145 221 100 221 98 221 98 222 146 222 145 222 201 223 146 223 99 223 146 224 98 224 99 224 147 225 140 225 148 225 148 226 140 226 101 226 102 227 149 227 101 227 101 228 149 228 148 228 103 229 149 229 102 229 81 230 150 230 82 230 81 231 151 231 150 231 82 232 102 232 83 232 81 233 80 233 151 233 79 234 105 234 151 234 79 235 151 235 80 235 150 236 103 236 102 236 150 237 102 237 82 237 102 238 101 238 83 238 83 239 101 239 76 239 79 240 104 240 105 240 76 241 140 241 77 241 140 242 106 242 77 242 104 243 79 243 78 243 104 244 78 244 106 244 106 245 78 245 77 245 152 246 105 246 104 246 152 247 104 247 153 247 106 248 154 248 153 248 106 249 153 249 104 249 176 250 122 250 175 250 107 251 158 251 159 251 157 252 158 252 108 252 205 253 198 253 89 253 127 254 205 254 89 254 127 255 129 255 205 255 128 256 199 256 94 256 200 257 199 257 128 257 139 258 201 258 99 258 139 259 202 259 201 259 206 260 154 260 140 260 140 261 154 261 106 261 147 262 206 262 140 262 203 263 143 263 100 263 197 264 105 264 161 264 105 265 197 265 151 265 151 266 197 266 196 266 196 267 195 267 150 267 196 268 150 268 151 268 194 269 150 269 195 269 194 270 103 270 150 270 100 271 188 271 203 271 203 272 187 272 143 272 186 273 144 273 187 273 187 274 144 274 143 274 185 275 144 275 186 275 185 276 184 276 144 276 135 277 178 277 177 277 135 278 177 278 176 278 135 279 176 279 136 279 136 280 176 280 175 280 175 281 174 281 136 281 131 282 167 282 166 282 131 283 166 283 132 283 166 284 165 284 132 284 194 285 193 285 204 285 204 286 193 286 192 286 203 287 188 287 187 287 227 288 138 288 199 288 227 289 137 289 138 289 173 290 91 290 174 290 174 291 91 291 136 291 178 292 135 292 92 292 178 293 92 293 179 293 229 294 134 294 91 294 229 295 91 295 207 295 229 296 200 296 134 296 133 297 198 297 208 297 230 298 133 298 208 298 230 299 88 299 133 299 209 300 86 300 164 300 164 301 86 301 165 301 165 302 86 302 132 302 167 303 131 303 88 303 167 304 88 304 168 304 86 305 209 305 210 305 86 306 210 306 130 306 129 307 130 307 210 307 152 308 153 308 234 308 234 309 153 309 154 309 233 310 105 310 234 310 105 311 152 311 234 311 149 312 103 312 204 312 235 313 149 313 211 313 211 314 149 314 204 314 204 315 103 315 194 315 235 316 148 316 149 316 235 317 147 317 148 317 146 318 201 318 212 318 146 319 212 319 145 319 237 320 145 320 212 320 100 321 145 321 237 321 142 322 97 322 238 322 213 323 142 323 238 323 238 324 97 324 184 324 184 325 97 325 144 325 141 326 213 326 202 326 213 327 141 327 142 327 214 328 170 328 169 328 214 329 169 329 230 329 230 330 169 330 168 330 230 331 168 331 88 331 209 332 164 332 163 332 209 333 163 333 232 333 232 334 163 334 160 334 232 335 160 335 215 335 215 336 160 336 107 336 215 337 107 337 159 337 215 338 159 338 216 338 216 339 159 339 162 339 161 340 105 340 233 340 161 341 233 341 216 341 161 342 216 342 162 342 211 343 204 343 217 343 217 344 204 344 192 344 217 345 192 345 191 345 217 346 191 346 218 346 218 347 191 347 190 347 218 348 190 348 219 348 219 349 190 349 189 349 219 350 189 350 237 350 237 351 189 351 188 351 237 352 188 352 100 352 238 353 184 353 220 353 220 354 184 354 183 354 220 355 183 355 182 355 220 356 182 356 221 356 221 357 182 357 181 357 221 358 181 358 222 358 222 359 181 359 226 359 226 360 181 360 180 360 226 361 180 361 179 361 226 362 179 362 227 362 227 363 179 363 92 363 227 364 92 364 137 364 207 365 91 365 173 365 207 366 173 366 223 366 223 367 173 367 172 367 171 368 224 368 172 368 172 369 224 369 223 369 214 370 225 370 170 370 170 371 225 371 171 371 171 372 225 372 224 372 213 373 201 373 202 373 231 374 205 374 129 374 229 375 199 375 200 375 217 376 236 376 211 376 235 377 206 377 147 377 209 378 231 378 210 378 210 379 231 379 129 379 198 380 205 380 208 380 208 381 205 381 230 381 199 382 228 382 227 382 262 383 220 383 221 383 261 384 238 384 240 384 240 385 238 385 220 385 240 386 220 386 262 386 238 387 261 387 260 387 238 388 260 388 213 388 213 389 260 389 241 389 213 390 241 390 201 390 239 391 212 391 259 391 201 392 241 392 259 392 201 393 259 393 212 393 212 394 239 394 237 394 237 395 239 395 242 395 219 396 258 396 218 396 237 397 242 397 219 397 219 398 242 398 258 398 218 399 258 399 257 399 218 400 257 400 217 400 217 401 257 401 256 401 217 402 256 402 255 402 217 403 255 403 236 403 236 404 255 404 243 404 236 405 243 405 211 405 211 406 243 406 254 406 211 407 254 407 235 407 235 408 254 408 253 408 235 409 253 409 206 409 206 410 253 410 252 410 262 411 221 411 263 411 263 412 221 412 222 412 263 413 222 413 264 413 264 414 222 414 226 414 264 415 226 415 265 415 265 416 226 416 266 416 266 417 226 417 227 417 266 418 227 418 244 418 244 419 227 419 228 419 244 420 228 420 267 420 267 421 228 421 199 421 267 422 199 422 229 422 267 423 229 423 268 423 268 424 229 424 207 424 268 425 207 425 269 425 269 426 207 426 245 426 245 427 207 427 223 427 245 428 223 428 270 428 270 429 223 429 224 429 270 430 224 430 271 430 271 431 224 431 272 431 272 432 224 432 225 432 272 433 225 433 273 433 273 434 225 434 214 434 273 435 214 435 274 435 274 436 214 436 230 436 274 437 230 437 275 437 275 438 230 438 276 438 276 439 230 439 205 439 276 440 205 440 277 440 277 441 205 441 231 441 277 442 231 442 278 442 278 443 231 443 280 443 280 444 231 444 209 444 280 445 209 445 279 445 279 446 209 446 232 446 279 447 232 447 281 447 281 448 232 448 215 448 281 449 215 449 246 449 246 450 215 450 216 450 246 451 216 451 247 451 247 452 216 452 248 452 248 453 216 453 233 453 248 454 233 454 249 454 249 455 233 455 234 455 249 456 234 456 250 456 250 457 234 457 154 457 250 458 154 458 251 458 251 459 154 459 206 459 251 460 206 460 252 460 108 461 173 461 174 461 118 462 183 462 117 462 169 463 124 463 125 463 190 464 113 464 114 464 192 465 112 465 113 465 155 466 166 466 126 466 157 467 159 467 158 467 108 468 174 468 122 468 124 469 170 469 123 469 158 470 160 470 156 470 123 471 173 471 108 471 156 472 164 472 155 472 112 473 193 473 111 473 185 474 186 474 116 474 109 475 161 475 157 475 156 476 160 476 163 476 167 477 125 477 126 477 119 478 180 478 181 478 116 479 184 479 185 479 121 480 178 480 120 480 188 481 114 481 115 481 111 482 195 482 110 482 120 483 179 483 119 483 115 484 187 484 188 484 117 485 184 485 116 485 123 486 171 486 172 486 119 487 182 487 118 487 122 488 176 488 121 488 112 489 192 489 193 489 125 490 168 490 169 490 113 491 190 491 191 491 117 492 183 492 184 492 114 493 189 493 190 493 121 494 176 494 177 494 191 495 192 495 113 495 155 496 165 496 166 496 157 497 162 497 159 497 155 498 164 498 165 498 123 499 170 499 171 499 115 500 116 500 186 500 123 501 172 501 173 501 156 502 163 502 164 502 109 503 197 503 161 503 121 504 177 504 178 504 114 505 188 505 189 505 119 506 179 506 180 506 109 507 196 507 197 507 126 508 166 508 167 508 124 509 169 509 170 509 122 510 174 510 175 510 111 511 194 511 195 511 107 512 160 512 158 512 115 513 186 513 187 513 157 514 161 514 162 514 125 515 167 515 168 515 120 516 178 516 179 516 119 517 181 517 182 517 111 518 193 518 194 518</p>
        </triangles>
      </mesh>
    </geometry>
  </library_geometries>
  <library_visual_scenes>
    <visual_scene id="Scene" name="Scene">
      <node id="eSeries_UR5e_006" name="eSeries_UR5e_006" type="NODE">
        <matrix sid="transform">-9.99987e-4 0 -3.89409e-10 0 -3.89409e-10 -7.54969e-11 9.99987e-4 0 0 9.99987e-4 7.54969e-11 0 0 0 0 1</matrix>
        <instance_geometry url="#eSeries_UR5e_007-mesh" name="eSeries_UR5e_006">
          <bind_material>
            <technique_common>
              <instance_material symbol="Black_007-material" target="#Black_007-material"/>
            </technique_common>
          </bind_material>
        </instance_geometry>
      </node>
      <node id="eSeries_UR5e_013" name="eSeries_UR5e_013" type="NODE">
        <matrix sid="transform">-9.99987e-4 0 -3.89409e-10 0 -3.89409e-10 -7.54969e-11 9.99987e-4 0 0 9.99987e-4 7.54969e-11 0 0 0 0 1</matrix>
        <instance_geometry url="#eSeries_UR5e_006-mesh" name="eSeries_UR5e_013">
          <bind_material>
            <technique_common>
              <instance_material symbol="JointGrey_007-material" target="#JointGrey_007-material"/>
            </technique_common>
          </bind_material>
        </instance_geometry>
      </node>
      <node id="Camera" name="Camera" type="NODE">
        <matrix sid="transform">0.6859207 -0.3240135 0.6515582 7.358891 0.7276763 0.3054208 -0.6141704 -6.925791 0 0.8953956 0.4452714 4.958309 0 0 0 1</matrix>
        <instance_camera url="#Camera-camera"/>
      </node>
      <node id="Light" name="Light" type="NODE">
        <matrix sid="transform">-0.2908646 -0.7711008 0.5663932 4.076245 0.9551712 -0.1998834 0.2183912 1.005454 -0.05518906 0.6045247 0.7946723 5.903862 0 0 0 1</matrix>
        <instance_light url="#Light-light"/>
      </node>
    </visual_scene>
  </library_visual_scenes>
  <scene>
    <instance_visual_scene url="#Scene"/>
  </scene>
</COLLADA>